<?xml version="1.0" encoding="UTF-8" standalone="no"?>
<!DOCTYPE svg PUBLIC "-//W3C//DTD SVG 1.1//EN" "http://www.w3.org/Graphics/SVG/1.1/DTD/svg11.dtd">
<svg width="100%" height="100%" viewBox="0 0 122 82" version="1.1" xmlns="http://www.w3.org/2000/svg" xmlns:xlink="http://www.w3.org/1999/xlink" xml:space="preserve" xmlns:serif="http://www.serif.com/" style="fill-rule:evenodd;clip-rule:evenodd;stroke-linejoin:round;stroke-miterlimit:2;">
    <g transform="matrix(1,0,0,1,-252.34,-29.357)">
        <g transform="matrix(1,0,0,1,315.176,46.3904)">
            <g transform="matrix(1,0,0,1,-1.84259,3.78005)">
                <path d="M0.076,-20.743C-2.026,-19.343 -10.418,-22.681 -8.569,-19.052C-9.75,-19.109 -11.72,-20.857 -11.549,-18.837C-13.417,-21.167 -14.042,-17.655 -15.588,-20.195C-19.815,-20.079 -14.192,-16.909 -12.987,-18.368C-9.808,-18.265 -15.527,-16.895 -12.459,-16.682C-13.236,-15.347 -7.243,-14.553 -8.049,-18.024C-6.667,-17.999 -3.705,-14.087 -4.237,-17.743C-4.987,-18.819 -9.473,-19.743 -6.048,-19.541C-4.782,-19.034 0.648,-18.37 0.075,-20.743L0.076,-20.743ZM48.419,-16.212C46.202,-14.557 43.135,-15.282 40.669,-14.524C38.231,-14.142 36.962,-12.39 35.763,-10.68C37.497,-10.766 34.399,-9.487 34.888,-8.462C32.466,-7.267 37.692,-7.217 38.009,-6.231C40.467,-5.858 44.304,-5.586 40.138,-7.243C37.244,-9.235 39.216,-10.267 40.825,-12.149C42.887,-13.953 49.86,-13.543 49.544,-15.899C49.119,-15.825 48.847,-16.265 48.419,-16.211L48.419,-16.212ZM5.357,-6.587C4.138,-5.245 3.687,-7.083 2.295,-5.243C3.653,-7.863 -1.2,-4.981 -2.424,-5.087C-5.163,-5.291 -7.394,-2.634 -9.674,-1.649C-11.355,-0.014 -12.712,1.71 -13.455,3.382C-14.734,4.758 -17.429,5.343 -17.947,6.637C-19.914,7.267 -24.864,9.518 -21.667,11.686C-23.074,13.973 -20.956,16.748 -18.024,15.741C-15.028,14.344 -14.15,11.942 -12.298,15.632C-10.869,17.18 -11.129,22.616 -8.36,20.441C-6.675,19.472 -4.952,17.845 -5.236,14.757C-2.505,14.56 -2.137,11.262 -5.187,11.048C-5.917,8.437 -3.517,6.82 -1.267,5.757C-0.2,3.864 0.469,1.137 3.857,2.507C5.708,3.768 1.79,5.511 0.295,6.413C-0.781,8.137 0.14,11.993 2.764,11.944C5.197,13.623 9.17,10.196 11.607,12.007C15.561,12.48 9.573,13.767 8.295,13.069C5.698,12.462 2.269,13.892 5.639,16.132C6.008,20.003 0.726,13.788 1.014,18.882C2.602,20.763 -1.089,23.901 -2.142,22.444C-5.035,21.353 -7.794,25.1 -10.75,22.715C-12.965,24.967 -14.105,20.984 -16.048,22.163C-16.902,21.98 -15.901,25.677 -18.361,23.85C-19.966,24.717 -24.225,25.059 -23.301,28.193C-24.655,28.782 -27.279,29.155 -27.923,31.381C-28.467,33.629 -31.156,31.12 -32.423,32.131C-30.495,35.269 -35.991,32.527 -36.715,34.257C-36.03,36.327 -32.539,35.648 -31.892,38.194C-29.073,42.252 -33.751,45.907 -37.611,43.913C-39.699,43.353 -44.642,43.023 -43.798,45.788C-42.928,48.335 -44.138,50.486 -44.892,53.069C-43.42,53.769 -44.529,58.331 -41.454,56.1C-39.793,57.359 -39.524,59.626 -36.954,57.444C-33.539,58.241 -31.46,55.966 -29.861,54.131C-27.059,53.463 -30.922,49.107 -26.574,48.384C-22.982,48.103 -25.574,42.124 -21.111,44.663C-17.612,45.438 -14.582,39.407 -12.423,45.194C-11,47.763 -7.8,48.37 -5.642,49.756C-3.832,51.078 -3.196,52.967 -3.779,54.995C-1.886,54.095 -1.025,52.187 -2.674,50.787C-2.203,48.436 1.345,52.952 -0.642,49.694C-3.561,48.091 -4.49,47.072 -7.049,45.537C-8.205,43.685 -12.251,39.984 -8.142,39.663C-7.725,42.626 -5.656,40.491 -5.102,43.503C-1.254,45.007 -1.421,45.813 1.701,47.412C0.895,50.539 2.688,52.625 5.076,54.069C6.881,53.413 11.817,57.251 8.639,53.819C11.913,53.84 6.855,52.728 7.545,51.444C5.432,47.581 9.363,52.607 9.357,49.287C12.185,49.566 14.59,49.768 17.263,48.694C13.749,47.482 15.361,44.407 15.73,41.769C17.629,41.555 17.763,36.89 20.076,38.194C22.133,39.386 24.423,38.069 21.482,40.288C23.573,41.175 24.123,42.774 25.966,40.94C31.588,41.113 21.79,39.654 25.451,38.319C27.47,37.503 31.387,35.612 29.513,39.881C27.296,41.45 33.16,42.555 34.013,44.6C37.367,43.316 38.977,46.979 42.232,46.819C43.898,47.732 51.884,49.619 47.138,45.944C45.522,43.881 42.417,40.682 46.544,39.257C47.481,37.464 51.174,37.724 51.359,36.945C51.977,34.67 46.875,31.033 49.261,30.062C51.27,30.426 53.339,29.321 52.161,27.769C55.133,25.474 58.393,31.665 60.825,28.319C61.323,25.727 60.957,19.442 57.664,23.621C53.28,23.558 54.064,19.391 57.574,18.892C55.192,14.722 55.021,9.761 53.532,5.053C50.95,1.99 53.324,0.248 55.519,-1.436C55.341,-4.408 47.187,-5.537 47.658,-3.719C48.723,-0.603 45.494,-4.3 43.982,-2.525C41.71,-2.606 40.283,-1.365 38.926,-3.115C35.385,-2.955 32.491,1.419 29.544,-0.556C34.412,-1.67 24.227,-4.23 27.669,-1.868C27.068,-0.363 31.054,2.304 27.201,1.288C23.682,-0.319 20.571,-3.151 15.982,-3.618C13.051,-3.969 11.192,-4.72 8.076,-4.681C8.578,-5.515 11.27,-5.429 7.794,-6.157C6.232,-5.299 6.489,-6.431 5.357,-6.587L5.357,-6.587ZM-2.955,-3.493C-2.886,-3.245 -3.502,-3.321 -2.955,-3.493ZM0.983,-1.087C1.427,0.132 1.298,0.113 0.983,-1.087ZM-7.955,-0.806C-7.732,-0.842 -8.375,-0.234 -7.955,-0.806ZM-50.892,0.882C-51.99,2.369 -54.99,1.19 -55.673,1.976C-57.277,1.906 -57.325,3.555 -58.548,1.351C-61.552,1.791 -61.93,3.387 -58.752,2.831C-59.569,3.921 -62.739,3.257 -59.705,4.788C-58.034,7.401 -52.294,5.366 -49.047,5.565C-46.793,2.554 -47.924,2.125 -50.893,0.882L-50.892,0.882ZM-12.362,5.694C-12.035,5.662 -13.202,6.511 -12.362,5.694ZM13.419,7.694C13.101,8.543 12.936,8.633 13.419,7.694ZM2.7,13.694C0.58,15.228 5.065,14.566 2.7,13.694ZM3.825,14.694C-0.57,14.404 2.804,18.126 3.825,14.694ZM-36.549,14.851C-37.697,16.783 -38.286,16.463 -38.372,14.933C-40.978,16.19 -38.509,17.523 -37.487,18.663C-37.284,20.292 -35.785,20.726 -36.617,22.329C-34.309,19.643 -32.394,26.323 -35.862,24.444C-36.138,27.055 -38.528,28.584 -34.331,28.35C-35.602,28.732 -40.119,32.295 -35.77,30.667C-33.474,29.463 -29.162,29.869 -27.366,28.491C-28.338,27.887 -25.294,25.655 -28.152,24.987C-29.351,23.177 -30.975,21.144 -32.763,19.817C-36.458,20.504 -29.036,15.684 -33.456,16.319C-36.414,17.31 -32.134,13.882 -35.862,14.975L-36.55,14.85L-36.55,14.85L-36.549,14.851ZM9.294,15.757C9.494,15.716 9.045,16.335 9.294,15.757ZM8.856,19.944C9.21,21.212 9.067,21.182 8.856,19.944ZM8.169,20.975C8.616,21.179 7.273,20.928 8.169,20.975ZM-38.674,21.007C-40.946,20.877 -42.579,21.625 -42.268,23.163C-45.021,21.506 -43.419,24.03 -44.076,24.752C-40.885,24.922 -48.124,27.84 -43.737,28.288C-40.327,27.787 -37.708,26.711 -37.956,22.975C-36.613,22.69 -38.161,21.258 -38.675,21.007L-38.674,21.007ZM1.481,22.788C1.881,22.753 1.997,24.058 1.481,22.788ZM5.418,24.069C5.811,24.521 5.273,24.376 5.418,24.069ZM-20.206,30.444C-20.374,30.666 -21.114,30.392 -20.206,30.444ZM-1.456,31.85C-0.484,31.926 0.072,32.324 -1.456,31.85ZM4.981,33.1C5.197,33.041 4.99,33.28 4.981,33.1ZM15.043,34.944C15.203,34.88 15.544,35.252 15.043,34.944ZM-13.988,36.319C-12.774,36.363 -14.08,37.655 -13.988,36.319ZM-8.8,37.694C-8.096,37.941 -8.787,38.594 -8.8,37.694ZM0.137,39.131C0.342,39.149 0.109,40.625 0.137,39.131ZM-4.613,40.662C-4.482,40.627 -4.775,40.905 -4.613,40.662ZM1.418,41.506C1.597,41.896 1.48,41.918 1.418,41.506ZM1.481,42.912C1.689,42.873 1.609,43.595 1.481,42.912ZM1.918,45.069C2.028,46.113 1.885,46.177 1.918,45.069ZM12.199,47.881C12.461,48.357 11.373,48.322 12.199,47.881ZM4.262,49.412C4.42,49.387 4.236,49.571 4.262,49.412ZM5.949,54.537C3.268,54.893 7.415,58.424 7.355,57.506C9.142,59.408 8.206,53.114 5.949,54.537ZM10.355,54.537C10.389,55.793 12.382,55.106 10.355,54.537ZM11.012,56.725C8.557,57.352 11.808,57.571 11.012,56.725ZM11.98,57.818C12.652,58.56 12.093,58.03 11.98,57.818ZM9.324,59.256C8.022,61.47 16.402,61.504 11.793,59.881C10.754,60.242 10.243,59.394 9.324,59.256Z" style="fill:rgb(30,89,89);fill-rule:nonzero;"/>
            </g>
        </g>
    </g>
</svg>
