<?xml version="1.0" encoding="UTF-8" standalone="no"?>
<!DOCTYPE svg PUBLIC "-//W3C//DTD SVG 1.1//EN" "http://www.w3.org/Graphics/SVG/1.1/DTD/svg11.dtd">
<svg width="100%" height="100%" viewBox="0 0 134 144" version="1.1" xmlns="http://www.w3.org/2000/svg" xmlns:xlink="http://www.w3.org/1999/xlink" xml:space="preserve" xmlns:serif="http://www.serif.com/" style="fill-rule:evenodd;clip-rule:evenodd;stroke-linejoin:round;stroke-miterlimit:2;">
    <g transform="matrix(1,0,0,1,-245.771,-102.939)">
        <g transform="matrix(1,0,0,1,315.176,46.3904)">
            <path d="M-11.703,56.548C-14.38,58.538 -17.46,57.283 -20.328,57.642C-24.547,57.713 -27.689,59.837 -31.484,61.017C-35.479,61.308 -37.548,58.068 -38.984,63.486C-43.437,64.526 -44.775,67.376 -43.828,71.517C-47.101,75.233 -52.178,77.129 -53.171,82.204C-55.693,85.293 -57.827,88.651 -55.453,92.173C-55.376,94.145 -54.635,98.408 -56.89,100.642C-57.995,103.572 -55.777,107.207 -53.921,109.204C-52.168,111.314 -50.93,112.871 -49.89,115.329C-48.092,117.816 -45.093,119.748 -43.015,121.798C-39.202,122.525 -34.724,119.216 -31.015,121.266C-27.964,120.248 -24.754,118.176 -22.341,118.548C-17.878,116.771 -18.753,124.884 -14.734,121.923C-7.127,122.285 -13.276,131.243 -11.234,135.11C-9.915,137.977 -6.221,140.928 -6.641,143.485C-5.036,147.118 -4.165,151.137 -4.453,154.86C-7.172,158.116 -8.047,163.58 -7.391,167.891C-4.636,171.904 -2.566,176.688 -2.766,181.828C-2.085,187.072 1.522,190.85 2.64,195.765C0.231,197.25 3.769,201.941 6.374,199.897C10.083,198.707 14.176,199.586 17.703,197.922C21.891,194.443 25.817,190.401 27.671,185.484C27.335,180.244 35.612,180.466 32.671,174.297C30.033,170.186 37.157,167.482 39.976,165.101C43.344,162.032 44.412,155.654 42.359,152.016C41.381,149.282 38.641,142.959 42.202,142.141C40.273,139.258 43.952,136.007 45.921,133.36C50.091,128.096 56.622,124.71 58.39,117.954C59.688,115.78 64.174,107.227 59.515,108.329C55.596,108.579 50.124,112.663 47.609,108.61C48.196,107.367 46.211,103.562 43.296,101.923C38.964,100.699 41.235,94.799 37.578,93.798C37.403,89.913 34.562,85.833 33.546,84.548C32.918,80.595 29.47,77.004 27.609,73.173C26.963,69.38 26.689,67.001 22.723,69.523C18.792,70.484 15.428,67.812 11.765,67.556C9.723,63.502 5.306,67.061 5.797,70.579C1.286,70.976 -1.233,66.938 -4.766,65.642C-7.465,65.411 -12.636,63.982 -8.797,61.33C-10.318,57.882 -7.882,57.881 -11.703,56.548ZM31.078,65.892C30.915,66.135 31.208,65.856 31.078,65.892ZM-11.453,71.111C-11.141,71.069 -11.663,72.197 -11.453,71.111ZM-50.421,72.704C-52.075,73.66 -49.213,73.477 -50.421,72.704ZM-51.109,73.704C-53.622,76.376 -49.058,75.264 -51.109,73.704ZM-57.515,73.798C-59.37,74.187 -56.716,74.476 -57.515,73.798ZM-58.046,74.173C-58.252,74.119 -58.178,74.622 -58.046,74.173ZM-54.953,74.048C-58.299,74.413 -53.89,76.601 -54.953,74.048ZM-53.953,74.892C-55.282,76.412 -51.959,75.854 -53.953,74.892ZM-10.641,78.548C-10.435,79.643 -10.474,80.71 -10.641,78.548ZM-35.734,81.611C-35.302,81.491 -35.715,81.97 -35.734,81.611ZM29.703,87.735C30.206,88.469 30.1,88.502 29.703,87.735ZM13.922,92.86C13.881,94.764 13.992,97.768 14.015,100.11C14.007,97.698 13.818,95.256 13.922,92.86ZM38.234,96.61C37.324,96.919 37.334,96.804 38.234,96.61ZM64.39,98.142C64.097,98.121 64.582,98.364 64.39,98.142ZM-69.359,98.36C-69.725,99.498 -67.756,98.691 -69.359,98.36ZM-68.327,100.61C-70.567,101.931 -66.835,102.072 -68.327,100.61ZM-4.078,103.892C-3.961,104.219 -4.725,104.077 -4.078,103.892ZM-23.703,106.86C-23.539,106.819 -23.612,107.213 -23.703,106.86ZM11.515,107.048C11.798,107.937 11.685,107.952 11.515,107.048ZM-26.109,109.079C-25.955,109.02 -25.768,109.458 -26.109,109.079ZM12.297,109.235C12.466,109.456 11.99,109.434 12.297,109.235ZM-41.671,110.548C-41.586,110.663 -41.879,110.613 -41.671,110.548ZM13.297,110.985C13.583,111.624 13.475,111.65 13.297,110.985ZM13.453,111.735C13.394,112.807 13.28,112.849 13.453,111.735ZM47.671,112.579L47.89,113.11L47.671,112.579ZM13.297,113.11C13.87,113.473 13.031,113.499 13.297,113.11ZM-2.547,113.298C-1.944,113.52 -2.583,113.491 -2.547,113.298ZM-45.984,114.266C-45.691,114.148 -46.165,114.768 -45.984,114.266ZM56.077,115.548L55.952,115.86L56.077,115.548ZM-0.609,115.954C-0.169,115.964 -0.694,116.135 -0.609,115.954ZM19.984,120.266C20.043,120.902 19.919,121.125 19.984,120.266ZM17.109,120.298C17.645,120.336 16.63,120.442 17.109,120.298ZM15.172,121.141C16.605,121.266 13.989,121.261 15.172,121.141ZM20.39,121.454C21.126,121.431 20.95,123.112 20.39,121.454ZM10.984,122.672C12.245,121.715 12.224,124.35 10.984,122.672ZM31.515,122.922C31.611,122.906 31.499,123.018 31.515,122.922ZM-12.578,123.36C-15.221,124.688 -10.905,125.052 -12.578,123.36ZM29.765,123.61C27.784,124.031 26.135,123.848 29.765,123.61ZM2.953,123.735C5.407,123.748 5.377,123.864 2.953,123.735ZM40.734,124.204L40.921,124.36L40.734,124.204ZM-7.859,126.579C-7.617,126.679 -8.102,126.679 -7.859,126.579ZM44.015,127.922C43.853,130.515 43.691,130.499 44.015,127.922ZM25.796,128.485C26.406,129.211 25.01,128.697 25.796,128.485ZM31.64,131.204C31.735,131.119 31.718,131.341 31.64,131.204ZM44.046,133.36C45.058,134.676 44.927,134.783 44.046,133.36ZM23.578,134.297C23.458,135.539 23.345,135.896 23.578,134.297ZM1.016,134.579C0.784,135.1 0.746,134.458 1.016,134.579ZM-5.672,134.766C-5.31,134.91 -6.099,134.782 -5.672,134.766ZM-7.328,135.547C-7.484,135.815 -7.509,135.42 -7.328,135.547ZM-7.172,135.547C-6.216,135.644 -6.221,135.769 -7.172,135.547ZM23.109,136.672C23.358,138.059 22.927,137.79 23.109,136.672ZM-7.953,137.891C-8.945,138.734 -9.01,138.652 -7.953,137.891ZM-3.828,140.172C-3.683,140.486 -4.668,140.604 -3.828,140.172ZM-5.734,140.672L-5.984,141.266L-5.734,140.672ZM-6.016,141.516L-6.016,141.922L-6.016,141.516ZM-6.109,142.141L-6.516,142.329L-6.109,142.141ZM11.578,153.016C12.559,153.213 10.796,152.995 11.578,153.016ZM13.89,153.047C14.411,153.038 13.806,153.25 13.89,153.047ZM40.89,153.047C41.021,153.011 40.727,153.29 40.89,153.047ZM18.922,154.36C20.155,154.613 18.396,154.477 18.922,154.36ZM19.859,155.11C20.962,154.536 20.924,157.165 19.859,155.11ZM57.89,155.485C56.675,157.112 55.772,159.87 53.728,160.956C51.818,163.112 46.868,163.678 47.609,168.047C50.02,172.598 42.928,177.603 48.386,182.039C54.998,182.983 53.66,174.083 56.484,170.391C57.288,165.222 60.377,163.278 59.327,158.61C59.268,157.601 58.852,155.964 57.89,155.485ZM10.578,156.985C11.695,156.997 9.992,157.085 10.578,156.985ZM29.078,158.953C29.7,159.24 29.704,159.366 29.078,158.953ZM32.109,161.047C32.298,162.501 32.06,162.527 32.109,161.047ZM24.578,162.328C24.443,162.716 24.373,162.244 24.578,162.328ZM12.047,166.172C12.254,166.237 11.961,166.287 12.047,166.172ZM15.265,166.578C15.764,166.668 14.251,166.807 15.265,166.578ZM14.734,166.891C14.111,167.26 14.129,167.139 14.734,166.891ZM21.328,174.297C21.638,174.138 21.602,174.854 21.328,174.297ZM21.609,176.391C19.868,177.741 18.121,178.934 21.609,176.391ZM6.64,181.203C7.421,183.027 7.296,183.169 6.64,181.203ZM9.172,183.703C9.455,183.668 8.533,184.438 9.172,183.703Z" style="fill:rgb(89,156,139);fill-rule:nonzero;"/>
        </g>
    </g>
</svg>
