<?xml version="1.0" encoding="UTF-8" standalone="no"?>
<!DOCTYPE svg PUBLIC "-//W3C//DTD SVG 1.1//EN" "http://www.w3.org/Graphics/SVG/1.1/DTD/svg11.dtd">
<svg width="100%" height="100%" viewBox="0 0 237 141" version="1.1" xmlns="http://www.w3.org/2000/svg" xmlns:xlink="http://www.w3.org/1999/xlink" xml:space="preserve" xmlns:serif="http://www.serif.com/" style="fill-rule:evenodd;clip-rule:evenodd;stroke-linejoin:round;stroke-miterlimit:2;">
    <g transform="matrix(1,0,0,1,-0.0064311,0)">
        <path d="M221.813,0C215.521,0.546 208.771,0.556 203.158,1.219C200.128,1.593 197.3,2.716 194.533,1.75C189.465,1.814 182.347,2.863 178.564,4.656C177.154,6.275 163.552,7.106 174.158,7.687C177.91,8.616 165.884,7.721 171.939,10.25C174.988,10.535 177.343,8.948 179.345,9.844C185.194,9.052 183.017,16.277 183.439,17.625C188.818,17.739 184.848,19.47 183.355,19.237C191.813,21.599 179.493,22.055 181.697,25.457C180.388,27.42 182.137,32.059 183.439,34.812C186.429,34.844 188.302,38.262 191.033,36.156C192.579,33.182 195.473,31.739 195.627,29.75C196.305,28.387 200.981,26.334 202.033,27C206.282,26.95 208.241,21.469 212.313,22.812C216.732,22.833 227.053,17.687 216.563,19.718C215.834,19.136 219.946,16.775 221.938,18.656C226.158,18.376 218.863,16.029 220.284,14.45C223.015,16.621 226.188,13.16 227.72,12.125C230.099,12.781 229.126,8.738 228.595,8.344C229.469,7.126 229.835,4.443 232.782,3.844C241.254,2.801 233.193,1.497 229.001,2.687C222.984,5.966 229.715,0.99 223.626,2.281C230.074,0.964 227.454,1.466 221.814,0L221.813,0ZM172.814,0.531C166.672,0.678 161.472,2.141 155.095,2.344C150.895,4.13 168.69,3.877 158.251,4.437C155.965,4.231 162.213,8.359 156.095,6.531C154.222,6.304 144.315,10.4 150.314,9.75C155.301,8.421 158.06,12.226 161.626,8.594C166.083,7.651 168.094,3.087 173.064,5.063C176.112,2.654 184.993,3.174 184.97,1.407C180.937,0.597 176.692,1.14 172.814,0.532L172.814,0.531ZM151.626,2.656C145.638,3.455 144.787,6.191 149.845,5.781C142.12,7.117 153.442,7.501 155.908,5.937C158.621,4.276 155.132,4.937 153.876,3.906C152.71,4.204 152.992,2.385 151.626,2.656L151.626,2.656ZM135.377,5.312C129.868,6.948 141.213,9.543 138.752,5.937C137.54,6.175 136.59,5.142 135.377,5.312ZM127.095,5.844C123.198,8.425 133.841,5.966 127.095,5.844ZM141.907,6.312C139.423,8.885 148.289,6.546 141.907,6.312ZM123.908,7C118.816,7.686 125.073,8.694 123.908,7ZM127.126,7.094C120.013,7.569 126.304,9.718 127.126,7.094ZM131.345,7.406C128.669,9.552 133.461,8.818 131.345,7.406ZM143.97,7.781C137.477,7.635 147.316,9.403 143.97,7.781ZM118.658,7.812C116.344,8.037 106.983,9.432 109.877,10.625C112.112,10.174 119.469,10.077 118.658,7.812ZM148.658,7.843C144.125,8.136 148.62,9.589 148.658,7.843ZM141.689,8.875C135.516,9.846 146.543,9.182 141.97,12.125C145.777,13.604 149.094,11.36 153.689,13.062C162.24,10.979 150.658,10.139 147.814,10.781C146.06,11.094 145.973,8.406 141.689,8.875L141.689,8.875ZM124.22,9.125C122.246,13.095 116.585,7.749 112.564,11.5C114.09,12.489 118.311,10.487 115.596,12.937C118.07,12.617 131.477,11.034 125.221,10.562C125.695,9.396 125.89,8.965 124.221,9.125L124.22,9.125ZM134.97,9.25C127.763,11.594 139.144,13.144 137.126,9.343C136.478,10.396 135.95,8.81 134.97,9.25ZM130.126,9.375C129.064,12.437 134.249,10.235 130.126,9.375ZM128.408,11.093C125.6,11.678 129.299,12.547 128.783,11.187L128.408,11.093ZM139.564,11.25C132.107,11.93 143.589,13.064 139.564,11.25ZM103.97,12.625C102.227,13.907 93.5,16.616 98.376,18.187C102.573,16.846 107.861,15.003 111.438,13.875C109.375,12.403 106.493,13.434 103.969,12.625L103.97,12.625ZM139.908,13.281C133.338,13.44 133.073,18.195 139.22,15.5C140.834,14.282 144.936,13.428 139.908,13.281ZM147.095,13.593C143.119,13.608 137.71,17.807 141.564,18.375C134.825,19.044 146.526,20.245 148.751,20.593C152.808,17.811 154.368,21.713 153.751,22.406C158.377,21.234 157.214,26.566 153.157,26.656C154.035,29.91 144.365,25.891 147.028,30.313C149.843,28.828 155.697,29.564 153.47,32.124C156.29,33.321 163.507,35.267 157.961,31.036C160.469,33.232 165.416,32.405 162.689,28.749C159.411,23.201 166.36,29.772 168.282,27.749C172.693,25.332 168.614,24.811 166.595,23.281C160.403,22.033 169.419,21.249 164.595,18.656C160.508,17.547 157.137,14.229 152.876,16.375C154.867,14.766 148.32,12.64 145.657,16.562C145.515,20.459 144.491,13.71 148.564,13.812C148.163,13.405 147.542,13.885 147.095,13.593L147.095,13.593ZM133.97,13.75C128.272,13.706 129.011,15.109 126.001,15.968C129.198,20.141 132.282,15.536 134.157,14.531L134.157,13.875L133.97,13.75L133.97,13.75ZM124.876,13.781C119.296,13.666 126.746,16.484 124.876,13.781ZM154.22,13.937C152.732,17.147 163.658,13.541 154.751,13.937L154.22,13.937ZM120.158,14.687C117.256,19.167 118.218,14.727 113.846,15.156C111.426,15.872 107.926,14.373 104.159,17.437C106.938,18.271 100.21,19.559 106.909,19.062C116.42,19.889 95.167,20.258 106.127,21.124C105.185,25.345 114.492,19.361 116.689,21.874C120.268,22.118 125.748,20.109 120.845,18.312C121.901,17.275 123.187,14.163 120.158,14.687L120.158,14.687ZM133.689,16.968C129.063,17.696 130.7,21.04 129.846,21.624C131.929,22.407 126.152,24.32 125.814,24.249C127.806,20.352 121.479,25.256 119.408,23.968C116.807,23.412 112.148,20.657 111.408,23.156C117.407,23.282 107.496,25.234 105.346,23.906C98.045,25.026 107.968,21.303 101.565,21.812C97.152,19.421 92.227,21.82 90.507,19.721C89.061,19.315 77.972,24.228 81.596,21.406C90.747,18.9 81.46,20.305 77.472,21.343C73.892,22.406 69.702,19.076 65.628,19.718C60.023,19.334 55.695,17.327 50.066,19.124C45.53,19.661 40.826,21.871 36.285,23.093C39.601,24.517 37.108,28.076 35.66,26.468C36.516,24.925 25.264,27.877 29.535,28.468C24.957,30.574 38.409,28.425 31.504,30.562C29.024,33.112 23.068,31.99 21.348,35.468C18.121,38.862 26.982,36.496 20.848,39.999C23.355,39.944 24.73,40.364 26.754,40.03C29.558,40.056 20.994,43.361 19.098,44.155C14.606,44.416 8.167,48.396 16.254,45.999C21.503,45.246 25.655,42.079 30.973,40.999C33.89,38.556 37.324,37.411 41.067,35.468C45.359,35.164 32.241,38.842 37.755,39.187C41.955,39.196 44.176,34.485 47.129,37.031C50.248,36.995 55.992,39.226 56.004,41.281C52.471,46.112 58.566,43.042 58.692,40.718C58.748,44.148 59.153,47.399 57.377,50.232C60.313,49.417 57.303,53.908 58.754,54.655C61.751,55.8 63.738,61.359 58.754,60.374C57.198,59.754 56.177,68.104 52.504,69.718C49.533,73.37 49.373,77.922 50.004,82.062C49.866,83.512 50.398,87.668 53.723,88.187C56.304,91.319 55.13,96.641 57.442,99.624C51.604,101.348 61.068,101.877 59.442,105.562C59.825,109.578 65.309,111.309 61.536,107.093C60.559,103.438 60.382,98.782 58.098,96.343C57.273,88.845 62.4,95.064 61.942,99.374C64.977,101.77 63.66,106 68.004,108.624C70.922,111.821 68.191,114.984 69.817,117.405C71.795,120.561 76.542,121.02 79.754,123.593C84.515,125.905 88.454,121.152 91.004,127.968C94.921,129.693 98.48,128.107 100.16,132.343C100.786,137.134 103.19,134.693 104.232,138.459C107.352,139.286 110.501,142.879 111.129,138.155C113.435,137.643 116.48,143.406 114.566,137.405C111.102,134.889 106.425,139.947 105.066,134.436C104.018,130.587 108.614,123.676 102.441,123.812C96.537,124.739 95.986,123.397 98.754,118.405C99.037,117.617 104.078,110.92 98.629,112.843C94.494,112.917 94.511,117.557 92.343,118.911C89.105,118.559 84.33,119.669 83.754,114.781C81.258,110.243 85.618,106.302 85.504,102.062C85.692,99.183 90.322,97.587 92.879,96.28C95.302,96.076 100.675,100.138 100.16,96.124C100.673,93.319 106.671,97.026 108.722,95.874C112.819,97.185 109.315,104.211 113.347,105.624C117.213,102.231 111.556,95.4 115.66,91.812C118.486,89.248 121.844,88.069 124.347,84.812C127.709,85.014 124.233,77.188 127.415,77.568C124.432,84.203 128.615,79.694 129.316,77.562C131.979,75.295 134.366,72.265 138.597,73.125C137.366,71.157 139.018,68.016 143.034,67.375C144.153,66.851 150.473,63.621 147.972,66.125C142.782,70.834 152.14,66.844 154.659,65.719C154.729,64.121 148.204,63.846 150.19,60.25C146.556,61.408 157.064,56.669 148.909,57.844C144.196,59.901 141.262,60.178 147.753,57.688C152.112,53.024 159.819,58.806 164.128,53.469C170.66,52.389 166.801,47.607 164.596,45.906C159.864,44.711 163.459,41.947 160.94,38.157C160.316,33.652 156.125,43.435 153.003,39.25C156.131,34.962 151.498,33.243 147.503,33.407C143.296,31.315 141.114,39.612 140.409,40.407C143.917,46.298 133.101,44.874 133.628,49.625C133.717,55.485 126.33,54.009 129.378,48.813C131.939,44.21 123.868,47.216 123.128,43.5C118.743,42.466 117.589,43.697 117.535,39.375C116.384,37.316 122.177,33.834 124.816,32.844C126.835,30.864 126.861,31.419 129.972,30.032C134.016,30.951 136.086,25.386 139.128,26.001C140.455,26.12 146.557,25.993 145.065,22.563C150.364,21.601 142.392,18.939 141.034,22.219C137.105,26.245 136.626,22.955 136.847,21.344C134.038,23.56 134.831,20.174 135.253,18.501C135.911,17.516 134.336,17.077 133.691,16.969L133.689,16.968ZM182.908,19.374C178.371,21.81 188.941,21.235 183.626,19.656L182.908,19.374ZM126.814,20.124C118.765,22.174 131.812,23.355 126.971,20.124L126.814,20.124ZM151.345,20.781C147.801,21.521 150.928,22.97 151.345,20.781ZM19.597,21.562L19.753,21.624L19.597,21.562ZM153.065,22.812C145.036,25.779 158.05,24.394 153.065,22.812ZM154.69,23.124C154.088,25.567 157.934,23.028 154.69,23.124ZM138.69,27.031C135.102,28.443 130.629,32.53 136.315,31.249C138.671,29.161 144.889,33.378 140.971,29.093C140.295,28.068 138.647,28.228 138.69,27.031L138.69,27.031ZM146.503,30.593C146.008,32.085 148.435,31.489 146.503,30.593ZM144.971,30.937C142.895,32.249 147.25,31.94 144.971,30.937ZM138.065,32.03C131.034,34.198 141.359,33.78 138.065,32.03ZM141.284,33.124C138.183,34.991 143.335,34.374 141.284,33.124ZM161.19,34.124C159.061,35.694 162.886,35.003 161.19,34.124ZM17.912,36.749C12.746,37.896 20.713,38.638 17.912,36.749ZM33.38,40.124C29.332,41.753 36.547,41.189 33.38,40.124ZM31.349,41.28C27.357,44.029 34.985,41.628 31.349,41.28ZM58.13,43.03C52.941,44.619 61.392,44.749 58.13,43.03ZM136.191,43.624C131.307,46.216 139.695,44.317 136.191,43.624ZM57.254,44.624C53.568,48.268 59.552,48.432 57.254,44.624ZM10.317,46.499C4.825,47.801 11.449,48.686 10.317,46.499ZM55.691,46.937C55.177,47.413 56.494,47.422 55.691,46.937ZM3.88,48.562C-0.225,51.016 6.217,50.129 3.88,48.562ZM54.535,48.624C49.634,51.573 60.304,48.595 54.535,48.624ZM1.036,49.374C-1.793,50.775 2.236,50.86 1.036,49.374ZM129.914,49.937C126.516,51.47 133.122,50.971 129.914,49.937ZM54.477,50.28C51.96,50.331 54.926,54.31 54.602,50.437L54.477,50.28ZM167.036,53.218C164.267,54.18 155.373,61.848 161.629,60.999C166.564,60.145 162.667,63.991 167.374,61.022C166.943,65.345 170.95,59.856 168.754,59.718C169.806,55.649 166.196,57.888 165.129,55.749C165.373,54.905 168.022,54.128 167.036,53.218L167.036,53.218ZM55.787,54.499C55.298,58.29 63.758,61.649 59.318,55.811C57.917,55.406 57.31,54.414 55.787,54.499ZM152.88,56.218C154.421,60.177 158.887,56.372 152.88,56.218ZM117.661,58.718C117.846,58.673 118.138,59.171 117.661,58.718ZM155.599,60.655C153.812,61.828 156.047,61.852 155.599,60.655ZM151.255,61.905C150.982,65.531 156.873,63.114 151.536,61.936L151.255,61.905ZM156.786,61.936C151.432,65.365 159.505,65.664 156.786,61.936ZM122.412,65.718L122.443,66.03L122.412,65.718ZM124.38,69.967C124.596,70.132 124.212,70.141 124.38,69.967ZM109.6,109.342C103.187,110.885 105.566,113.534 109.724,110.279C110.788,112.135 114.005,111.338 115.506,113.779C118.185,118.209 125.808,114.522 118.881,113.217C115.42,111.527 113.633,108.951 109.599,109.342L109.6,109.342ZM108.225,111.779C105.122,113.093 110.957,113.278 108.225,111.779ZM125.943,115.779C121.115,115.304 128.867,120.138 121.85,118.498C124.991,121.607 128.329,118.45 131.599,119.436C134.493,117.547 127.613,115.666 125.943,115.779L125.943,115.779ZM134.631,118.436C133.664,121.802 140.854,118.228 134.631,118.436ZM136.349,119.873C136.126,120.037 137.124,119.821 136.349,119.873ZM115.631,118.686C115.336,121.926 121.672,118.568 115.631,118.686L115.631,118.686Z" style="fill:rgb(22,71,115);fill-rule:nonzero;"/>
    </g>
</svg>
