<?xml version="1.0" encoding="UTF-8" standalone="no"?>
<!DOCTYPE svg PUBLIC "-//W3C//DTD SVG 1.1//EN" "http://www.w3.org/Graphics/SVG/1.1/DTD/svg11.dtd">
<svg width="100%" height="100%" viewBox="0 0 82 136" version="1.1" xmlns="http://www.w3.org/2000/svg" xmlns:xlink="http://www.w3.org/1999/xlink" xml:space="preserve" xmlns:serif="http://www.serif.com/" style="fill-rule:evenodd;clip-rule:evenodd;stroke-linejoin:round;stroke-miterlimit:2;">
    <g transform="matrix(1,0,0,1,-142.117,-137.802)">
        <path d="M160.424,137.848C158.644,140.276 152.982,139.423 152.959,143.345C151.514,144.773 150.392,145.632 149.331,147.348C149.107,149.542 149.43,153.73 148.689,156.878C146.91,158.772 145.241,160.985 143.268,162.973C140.196,165.24 144.257,167.625 144.143,168.535C141.61,169.94 141.395,174.427 144.018,175.41C147.279,178.005 148.361,183.357 150.924,187.004C152.182,191.986 156.123,195.03 160.643,196.879C163.31,198.712 164.933,201.906 164.542,205.819C163.158,210.139 165.363,214.267 164.778,218.79C163.024,222.01 165.843,226.17 164.956,229.691C164.502,233.926 165.274,238.086 165.268,241.941C165.087,245.806 170.301,244.831 168.655,248.782C170.315,250.438 169.692,252.889 169.982,255.545C168.941,258.164 172.411,257.43 170.737,260.191C172.236,262.361 173.956,265.248 175.791,266.853C178.615,264.979 179.772,269.501 176.84,266.902C176.206,268.106 177.908,270.245 179.424,268.503C180.321,265.407 183.93,266.859 180.83,264.41C179.532,261.347 184.027,258.748 182.842,256.171C179.117,256.077 179.124,252.559 181.58,251.41C181.221,249.179 182.892,247.216 181.518,246.629C179.927,245.387 179.198,242.447 182.705,244.348C186.349,244.803 181.913,238.339 186.955,240.098C192.174,240.866 192.905,233.164 189.049,232.285C185.999,228.975 191.108,232.123 192.611,231.973C196.269,232.987 196.837,227.839 198.576,225.753C201.327,222.154 202.729,217.316 202.424,213.036C205.234,209.665 209.7,208.962 213.08,207.317C215.276,204.299 216.416,201.297 217.173,197.755C217.724,194.692 216.406,191.322 217.236,188.349C219.641,185.669 222.689,182.4 223.517,178.724C225.595,174.1 221.388,172.405 218.454,171.161C216.016,167.112 211.079,167.439 207.255,167.866C207.906,165.945 202.779,162.592 200.611,164.38C199.785,166.91 196.61,166.569 199.673,164.849C202.26,161.495 194.696,161.952 195.643,164.948C190.906,167.431 197.362,161.666 197.857,159.741C195.287,158.544 196.134,154.74 194.057,152.854C191.611,150.523 187.268,151.452 184.799,149.849C182.188,148.533 181.658,144.961 178.33,144.849C180.525,142.01 173.851,143.01 176.873,140.916C173.622,140.722 171.448,143.17 168.127,141.325C165.266,141.861 164.472,138.388 162.392,138.537C164.59,140.749 156.838,141.934 160.9,138.963C161.454,138.522 161.242,137.58 160.424,137.849L160.424,137.848ZM179.018,148.754L178.518,148.848L179.018,148.754ZM178.081,149.035L177.956,149.254L178.081,149.035ZM162.706,149.098L162.831,149.629L162.706,149.098ZM172.487,156.348L172.424,156.973L172.487,156.348ZM180.018,156.629L179.924,156.973L180.018,156.629ZM187.112,158.035C186.831,158.475 186.807,157.818 187.112,158.035ZM150.737,167.41L150.143,167.535L150.737,167.41ZM149.393,167.879C148.045,168.489 148.035,168.346 149.393,167.879ZM161.237,170.691C161.485,170.623 160.935,171.094 161.237,170.691ZM144.081,171.16C144.435,171.29 144.044,171.28 144.081,171.16ZM146.363,172.097L146.175,172.191L146.363,172.097ZM156.737,175.129C156.772,175.378 155.967,175.461 156.737,175.129ZM157.206,180.879L157.206,181.004L157.206,180.879ZM184.706,202.378L185.143,202.441L184.706,202.378ZM169.768,205.441C169.853,206.448 169.674,206.341 169.768,205.441ZM171.518,206.409C170.857,206.799 170.837,206.68 171.518,206.409ZM171.112,209.503L171.081,209.941L171.112,209.503ZM181.737,210.066C182.506,209.697 182.467,211.585 181.737,210.066ZM182.862,211.222L183.205,211.316L182.862,211.222ZM170.55,211.503C170.687,212.639 170.552,212.686 170.55,211.503ZM166.612,219.753L166.55,220.253L166.612,219.753ZM188.987,221.066C188.566,221.856 188.176,222.363 188.987,221.066ZM168.456,233.221L168.613,233.784L168.456,233.221ZM166.644,245.909C164.579,248.433 169.191,250.65 167.3,246.378L166.894,245.972L166.644,245.909L166.644,245.909ZM170.144,248.097L170.3,248.222L170.144,248.097ZM170.55,249.034C170.836,249.646 170.685,249.603 170.55,249.034ZM171.362,250.597C172.195,250.838 171.561,250.956 171.362,250.597ZM169.394,251.097C168.157,251.56 170.57,252.266 169.394,251.097ZM168.425,251.597C165.41,252.935 171.106,253.887 168.425,251.597ZM168.644,253.909C163.016,256.177 172.795,255.946 168.644,253.909ZM172.769,255.628L172.894,255.784L172.769,255.628ZM169.05,257.94C166.354,258.201 170.553,259.825 169.05,257.94ZM169.769,259.534C166.995,259.153 170.446,263.317 170.331,259.972C170.334,259.69 170.036,259.475 169.769,259.534ZM175.769,264.628L176.237,264.753L175.769,264.628ZM171.862,264.972C170.397,266.169 172.878,265.817 171.862,264.972ZM180.05,265.159C182.165,265.997 182.135,266.107 180.05,265.159ZM182.519,266.972C179.074,266.952 181.81,268.511 181.738,268.925C182.03,270.401 183.5,270.371 180.362,270.003C176.647,270.931 186.752,271.56 184.737,270.722C187.338,271.888 191.362,270.576 186.487,269.94C184.576,269.434 183.739,267.635 182.518,266.972L182.519,266.972ZM173.425,267.097C173.933,269.18 177.422,267.105 173.425,267.097ZM180.112,267.972C178.556,269.335 181.655,269.118 180.112,267.972ZM175.925,268.472C175.048,269.803 179.406,270.748 175.925,268.472ZM185.956,271.065C180.501,271.432 186.786,273.743 186.612,271.222L186.313,271.077L185.956,271.065L185.956,271.065ZM188.206,272.003C183.222,272.417 190.032,273.731 188.206,272.003Z" style="fill:rgb(11,43,64);fill-rule:nonzero;"/>
    </g>
</svg>
