<?xml version="1.0" encoding="UTF-8" standalone="no"?>
<!DOCTYPE svg PUBLIC "-//W3C//DTD SVG 1.1//EN" "http://www.w3.org/Graphics/SVG/1.1/DTD/svg11.dtd">
<svg width="100%" height="100%" viewBox="0 0 101 95" version="1.1" xmlns="http://www.w3.org/2000/svg" xmlns:xlink="http://www.w3.org/1999/xlink" xml:space="preserve" xmlns:serif="http://www.serif.com/" style="fill-rule:evenodd;clip-rule:evenodd;stroke-linejoin:round;stroke-miterlimit:2;">
    <g transform="matrix(1,0,0,1,-512.153,-178.658)">
        <g transform="matrix(1,0,0,1,334.266,184.208)">
            <g transform="matrix(1,0,0,1,-14,7.81485)">
                <path d="M230.293,-13.365C227.7,-10.97 234.625,-12.599 230.293,-13.365ZM233.293,-12.521C231.069,-11.914 229.969,-9.996 232.316,-9.433C233.719,-7.966 237.546,-8.346 233.356,-7.959C231.644,-7.882 234.387,-5.604 234.466,-4.769C236.659,-7.036 238.653,-2.327 241.887,-3.178C245.238,-1.251 242.658,4.023 246.824,3.885C247.185,7.328 252.147,5.298 252.482,3.165C254.566,1.255 257.722,3.415 257.984,5.413C259.241,7.231 262.393,8.293 264.324,7.947C263.078,6.028 261.227,5.394 260.262,3.166C257.602,1.594 261.241,-1.249 257.387,-1.896C255.827,-5.796 251.932,-6.522 248.378,-7.833C245.327,-9.166 241.99,-11.063 239.825,-7.74C236.526,-3.738 237.822,-13.054 233.95,-12.271L233.622,-12.44L233.293,-12.521L233.293,-12.521L233.293,-12.521ZM239.012,-11.834C237.736,-10.311 242.209,-10.331 239.012,-11.834ZM259.012,-9.771C255.839,-7.255 262.769,-8.894 259.012,-9.771ZM264.387,-8.427C262.823,-6.777 267.331,-7.792 264.387,-8.427ZM266.199,-7.677C265.5,-5.156 271.049,-5.125 266.199,-7.677ZM269.293,-5.459C267.549,-2.452 271.68,-3.499 269.293,-5.459ZM267.137,-4.927C267.12,-2.177 263.807,-2.211 261.418,-2.24C261.871,1.022 269.433,-1.117 268.48,-4.396C267.943,-4.398 267.638,-4.923 267.137,-4.927L267.137,-4.927ZM259.074,-2.771C257.885,-1.481 260.798,-2.219 259.074,-2.771ZM260.231,-1.959C259.129,-1.13 261.387,-1.472 260.231,-1.959ZM243.669,1.541C239.231,3.64 244.995,4.696 243.981,1.604L243.669,1.541ZM249.544,8.354C247.224,11.482 247.792,15.926 246.138,19.573C244.603,25.097 239.396,19.4 237.513,17.229C235.606,16.476 238.185,14.152 238.263,13.104C241.086,12.616 238.239,9.66 236.921,10.733C234.856,11.547 229.604,7.111 231.544,11.041C229.518,11.401 227.734,12.152 226.825,13.979C225.537,15.958 226.804,17.298 223.794,16.885C222.66,12.544 219.363,15.441 217.767,17.392C216.409,19.121 215.211,19.583 214.419,21.322C213.333,17.098 211.884,25.208 209.982,25.76C207.18,27.543 204.159,27.594 201.107,28.729C198.059,30.541 195.889,31.167 195.388,34.604C194.537,36.128 196.123,41.226 194.299,38.127C193.928,40.115 193.13,39.401 194.294,42.26C194.776,45.541 194.912,49.306 193.575,52.635C190.413,54.194 192.059,57.518 195.513,56.26C198.691,54.732 202.168,54.024 205.825,54.385C208.784,50.491 213.376,52.232 217.105,50.072C220.157,49.601 222.869,50.416 225.072,51.98C225.265,53.688 225.064,58.891 227.074,54.791C228.863,53.646 232.498,51.466 229.512,54.666C228.637,55.726 225.879,58.246 229.043,56.666C231.479,54.324 227.884,58.586 229.918,58.353C228.148,61.755 231.086,63.411 233.944,64.357C235.796,63.785 238,61.098 238.262,64.416C240.849,63.729 243.224,61.854 246.125,61.948C248.323,58.273 251.595,55.034 254.824,52.103C257.748,49.272 261.172,45.69 260.949,41.448C262.839,37.709 259.591,34.001 258.73,31.417C256.661,29.471 257.032,25.608 253.605,24.292C253.208,21.419 254.6,16.95 252.088,15.121C249.247,17.421 252.313,8.726 249.543,8.355L249.544,8.354ZM228.325,9.166C227.195,12.341 233.315,8.722 228.825,9.291L228.325,9.166ZM287.636,56.791C285.715,58.737 288.394,60.998 285.449,63.603C283.939,64.896 281.438,65.731 283.536,67.411C281.803,68.356 280.678,70.857 283.761,69.54C286.593,68.401 287.154,64.961 290.355,65.103C292.095,64.059 294,59.998 290.19,62.232C288.948,61.938 290.642,58.316 288.361,60.888C288.011,60.047 290.113,57.201 287.636,56.791L287.636,56.791ZM226.481,58.009C222.463,59.378 230.921,58.324 226.481,58.009ZM240.012,65.822C237.376,68.106 241.912,67.299 240.012,65.822ZM233.887,65.947C230.916,66.598 234.278,67.774 233.887,65.947ZM279.511,67.478C276.115,69.844 273.304,72.682 269.167,73.697C266.324,74.72 263.697,76.802 261.456,77.869C260.613,80.765 267.092,80.122 268.636,77.29C271.136,74.497 274.685,74.8 277.042,72.228C278.844,71.824 283.658,67.779 279.605,68.447C279.548,68.195 280.033,67.501 279.511,67.478L279.511,67.478ZM233.887,67.978C233.115,69.367 230.267,75.135 233.699,73.228C235.918,73.266 240.332,68.844 238.481,68.197C236.257,68.904 235.963,68.935 233.887,67.978L233.887,67.978ZM261.356,79.728C256.803,81.386 263.519,81.045 261.356,79.728Z" style="fill:rgb(137,217,157);fill-rule:nonzero;"/>
            </g>
        </g>
    </g>
</svg>
