<?xml version="1.0" encoding="UTF-8" standalone="no"?>
<!DOCTYPE svg PUBLIC "-//W3C//DTD SVG 1.1//EN" "http://www.w3.org/Graphics/SVG/1.1/DTD/svg11.dtd">
<svg width="100%" height="100%" viewBox="0 0 234 175" version="1.1" xmlns="http://www.w3.org/2000/svg" xmlns:xlink="http://www.w3.org/1999/xlink" xml:space="preserve" xmlns:serif="http://www.serif.com/" style="fill-rule:evenodd;clip-rule:evenodd;stroke-linejoin:round;stroke-miterlimit:2;">
    <g transform="matrix(1,0,0,1,-366.334,-15.8598)">
        <g transform="matrix(1,0,0,1,334.266,184.208)">
            <path d="M100.715,-168.348C91.569,-166.541 108.485,-166.319 101.684,-168.285L100.715,-168.348ZM103.621,-167.067C94.947,-166.534 111.11,-162.708 108.215,-166.254C106.609,-166.782 105.254,-166.363 103.621,-167.067ZM111.246,-165.817C107.764,-161.223 121.052,-165.548 111.84,-165.192L111.777,-165.567L111.246,-165.817ZM114.996,-163.254C114.759,-159.278 108.71,-162.15 106.059,-160.41C101.442,-160.701 99.635,-158.942 102.872,-157.285C98.678,-158.116 92.496,-156.532 99.402,-155.004C104.496,-152.93 94.552,-155.449 93.934,-154.942C91.644,-153.896 94.67,-154.395 96.026,-152.773C93.171,-151.484 89.011,-157.477 90.121,-154.754C88.768,-153.115 93.196,-148.592 96.559,-149.817C101.335,-146.527 99.006,-147.223 95.153,-149.286C93.9,-148.675 94.382,-142.422 88.965,-145.723C88.102,-145.093 96.459,-146.988 91.121,-149.567C89.205,-152.408 86.204,-158.341 82.679,-155.203C79.229,-152.318 86.36,-150.312 85.996,-148.567C80.37,-151.47 84.971,-146.756 79.816,-144.677C81.139,-139.153 85.568,-130.77 83.89,-126.627C78.501,-123.948 87.392,-122.188 88.261,-123.67C91.14,-116.057 84.763,-117.183 80.213,-118.843C81.621,-115.387 75.015,-116.729 73.14,-113.628C71.442,-112.855 73.967,-104.089 77.265,-108.949C81.042,-110.555 82.641,-105.194 78.59,-105.473C78.511,-104.495 76.828,-103.431 80.34,-102.098C82.831,-100.038 81.962,-96.934 84.39,-99.403C89.403,-96.011 80.336,-98.354 84.309,-94.692C88.828,-90.376 83.993,-86.794 79.403,-90.661C74.277,-93.438 83.208,-96.339 76.59,-98.317C71.428,-99.719 69.096,-99.356 69.621,-94.224C70.782,-91.735 70.948,-88.472 73.996,-87.349C72.033,-82.853 76.504,-81.521 77.903,-78.349C78.641,-73.546 82.356,-77.659 83.902,-73.161C85.308,-69.6 90.411,-67.842 93.652,-69.849C95.494,-65.745 101.084,-65.349 105.652,-65.755C111.028,-67.585 112.415,-64.79 115.996,-61.443C121.125,-61.132 113.222,-59.795 119.371,-56.849C122.921,-57.721 122.138,-62.274 123.402,-56.318C122.431,-50.485 127.237,-46.41 128.183,-40.912C130.568,-38.702 131.489,-27.675 135.402,-34.162C137.89,-37.129 136.942,-42.283 137.214,-46.693C139.784,-47.599 141.217,-50.293 143.277,-52.287C146.559,-54.081 146.934,-59.428 150.402,-58.818C154.395,-60.026 155.314,-62.138 156.339,-56.13C159.528,-54.43 160.621,-53.501 161.183,-48.849C162.713,-43.287 166.607,-53.665 167.589,-47.161C168.509,-42.669 169.46,-39.049 169.87,-35.381C166.827,-31.348 172.192,-31.142 173.495,-27.568C173.325,-23.798 176.569,-17.081 180.558,-19.037C178.448,-22.782 179.112,-28.48 174.026,-29.881C170.852,-33.758 170.183,-38.156 172.745,-42.443C173.978,-40.714 177.523,-39.55 178.339,-37.13C181.832,-35.683 181.101,-29.961 184.401,-35.912C190.03,-37.224 188.935,-43.769 186.308,-47.568C183.512,-49.358 179.227,-52.133 181.37,-55.661C183.026,-61.044 186.939,-55.857 188.234,-56.682C189.234,-60.741 196.972,-58.817 199.276,-62.911C202.489,-65.908 202.471,-70.558 203.995,-74.442C199.947,-75.391 204.544,-79.478 199.151,-81.848C195.121,-84.863 195.96,-87.847 199.088,-90.379C195.061,-90.279 192.503,-89.665 189.664,-93.198C192.804,-92.115 192.057,-98.989 195.526,-96.504C193.917,-89.848 198.118,-96.62 201.901,-94.098C201.118,-89.354 206.865,-91.739 206.494,-87.004C206.821,-79.825 209.249,-85.37 212.338,-86.411C212.576,-90.822 203.449,-92.874 206.213,-95.629C207.64,-100.407 205.236,-100.264 208.182,-101.629C214.502,-98.236 214.529,-109.859 213.495,-113.285C210.998,-116.961 209.861,-122.024 204.745,-122.91C202.014,-121.595 200.498,-123.824 196.87,-124.191C198.425,-126.892 199.338,-128.783 199.654,-131.827C203.066,-132.701 207.638,-131.782 209.682,-132.535C211.16,-130.931 220.685,-131.585 215.182,-132.941C213.991,-137.353 219.062,-137.774 221.526,-134.941C224.363,-135.611 220.909,-140.88 224.963,-136.222C227.358,-132.924 221.168,-129.192 224.87,-126.066C227.849,-124.474 234.031,-115.235 235.931,-117.91C233.206,-121.714 238.35,-123.036 234.775,-125.254C236.62,-127.404 230.776,-128.74 229.181,-131.785C227.305,-134.764 232.376,-133.027 234.306,-134.629C238.61,-131.086 236.634,-136.637 240.088,-137.723C240.903,-138.949 247.8,-136.421 241.958,-139.949C234.001,-145.85 226.045,-152.215 215.869,-150.848C209.789,-151.645 221.416,-147.398 213.556,-149.442C211.199,-152.664 205.446,-149.24 200.901,-150.629C195.572,-154.71 188.437,-151.515 182.526,-153.942C179.368,-155.295 177.695,-154.511 172.432,-155.567C165.726,-156.312 175.03,-151.838 166.838,-153.723C161.789,-154.873 162.428,-151.361 157.276,-154.067C151.825,-155.099 155.974,-157.124 149.276,-156.91C145.079,-157.282 153.076,-154.479 145.37,-155.973C140.756,-157.133 135.65,-156.685 131.714,-157.723C129.772,-156.183 125.325,-156 131.089,-158.848C133.158,-163.095 122.105,-160.434 121.31,-162.367C118.675,-161.826 117.962,-163.99 114.995,-163.254L114.996,-163.254ZM108.402,-162.91C106.115,-162.137 109.516,-161.985 108.402,-162.91ZM159.09,-161.192C158.671,-157.59 165.576,-159.126 168.058,-159.129C168.504,-161.718 161.817,-159.885 159.902,-161.129L159.09,-161.192L159.09,-161.192ZM157.152,-160.473C157.105,-158.294 159.12,-160.348 157.152,-160.473ZM170.152,-159.942C171.843,-157.518 180.627,-159.146 172.496,-159.942C171.542,-159.968 171.091,-159.493 170.152,-159.942ZM166.246,-158.161C165.257,-156.989 168.898,-157.646 166.246,-158.161ZM168.308,-157.442C165.539,-155.329 177.404,-156.215 168.308,-157.442ZM212.402,-150.973C211.297,-149.628 214.516,-150.678 212.402,-150.973ZM241.682,-124.504C241.868,-122.247 244.419,-123.186 241.682,-124.504ZM244.432,-124.129C244.214,-122.789 246.307,-122.959 244.432,-124.129ZM101.374,-123.442C102.582,-122.898 102.583,-122.777 101.374,-123.442ZM208.533,-123.317C209.242,-118.947 215.443,-116.217 216.783,-111.379C217.244,-107.993 224.506,-105.923 220.501,-109.317C214.482,-114.091 222.827,-111.261 219.408,-113.535C215.262,-116.588 212.902,-120.666 208.533,-123.316L208.533,-123.317ZM98.904,-122.848L98.779,-122.629L98.904,-122.848ZM103.185,-121.786L103.435,-121.629L103.185,-121.786ZM95.623,-121.661C94.586,-121.265 94.548,-121.373 95.623,-121.661ZM105.904,-120.879C106.239,-120.913 106.4,-119.859 105.904,-120.879ZM184.372,-120.661C183.425,-120.501 183.416,-120.621 184.372,-120.661ZM107.498,-120.504L107.06,-120.286L107.498,-120.504ZM256.056,-120.161C254.422,-119.176 258.545,-119.739 256.056,-120.161ZM258.15,-119.536C257.163,-118.283 259.9,-118.842 258.15,-119.536ZM92.312,-119.192L92.249,-118.879L92.312,-119.192ZM147.561,-118.692L147.436,-118.629L147.561,-118.692ZM188.373,-118.536C189.474,-117.363 189.438,-117.158 188.373,-118.536ZM264.997,-118.379C264.046,-117.739 266.019,-117.816 264.997,-118.379ZM115.619,-117.661C116.553,-116.782 115.409,-117.287 115.619,-117.661ZM139.962,-116.879C140.039,-116.662 139.918,-116.604 139.962,-116.879ZM90.213,-116.817C90.832,-116.842 89.711,-116.546 90.213,-116.817ZM233.931,-116.598C232.52,-115.746 234.665,-115.847 233.931,-116.598ZM190.62,-116.442L191.557,-115.786L190.62,-116.442ZM153.182,-116.411L153.651,-115.911L153.182,-116.411ZM138.432,-116.38L137.432,-115.911L138.432,-116.38ZM234.837,-116.098C232.122,-113.536 237.037,-114.762 234.837,-116.098ZM124.458,-116.005C122.813,-115.447 122.795,-115.564 124.458,-116.005ZM121.458,-115.848C122.057,-115.768 120.771,-115.775 121.458,-115.848ZM191.864,-115.505C192.094,-115.538 192.214,-114.817 191.864,-115.505ZM159.426,-115.473C160.814,-115.262 160.55,-115.182 159.426,-115.473ZM154.52,-115.442C155.128,-115.233 155.096,-115.042 154.52,-115.442ZM147.645,-115.349C147.788,-114.856 146.44,-113.939 147.645,-115.349ZM192.113,-115.192L192.52,-114.505L192.113,-115.192ZM118.176,-115.099L119.114,-114.63L118.176,-115.099ZM82.208,-115.005C83.346,-114.835 81.572,-114.952 82.208,-115.005ZM156.613,-114.974C156.137,-114.44 154.266,-115.336 156.613,-114.974ZM179.363,-114.817L179.019,-114.692L179.363,-114.817ZM82.833,-114.755L83.208,-114.567L82.833,-114.755ZM161.301,-114.755L161.519,-114.63L161.301,-114.755ZM91.802,-114.724L90.958,-114.63L91.802,-114.724ZM162.457,-114.724L162.738,-114.63L162.457,-114.724ZM162.457,-114.724L161.832,-114.599L162.457,-114.724ZM132.301,-114.63C132.409,-114.503 132.196,-114.013 132.301,-114.63ZM90.021,-114.568L90.489,-114.536L90.021,-114.568ZM162.864,-114.443C163.525,-113.608 163.436,-113.518 162.864,-114.443ZM176.676,-114.411C178.932,-113.645 178.76,-113.557 176.676,-114.411ZM169.894,-114.255C167.617,-113.384 167.428,-113.571 169.894,-114.255ZM234.863,-113.974C234.052,-113.049 235.906,-113.734 234.863,-113.974ZM134.114,-113.443C134.269,-113.127 133.761,-113.517 134.114,-113.443ZM199.425,-111.818C200.561,-110.366 200.359,-110.486 199.425,-111.818ZM180.269,-110.661C180.446,-110.698 179.979,-110.255 180.269,-110.661ZM205.738,-110.661C206.101,-110.467 205.603,-110.437 205.738,-110.661ZM178.05,-110.474L177.863,-110.193L178.05,-110.474ZM206.238,-110.318C206.633,-109.843 206.07,-109.203 206.238,-110.318ZM94.019,-108.943C93.695,-106.675 96.273,-103.494 92.926,-102.38C89.916,-101.994 88.562,-106.85 91.556,-107.67C91.938,-110.688 92.81,-107.027 94.019,-108.943L94.019,-108.943ZM206.488,-108.505C207.547,-105.48 207.441,-105.436 206.488,-108.505ZM233.019,-107.38C230.58,-106.045 233.41,-105.533 233.019,-107.38ZM140.114,-107.349L140.364,-107.005L140.114,-107.349ZM231.082,-105.912C227.622,-105.034 230.782,-101.784 231.082,-105.912ZM221.363,-105.849C222.116,-103.751 221.583,-100.608 221.894,-98.724C226.488,-95.795 220.343,-102.838 225.988,-99.287C229.458,-98.563 230.658,-105.708 224.863,-103.724C223.514,-104.13 222.654,-105.33 221.363,-105.849L221.363,-105.849ZM175.114,-105.13L175.364,-105.005L175.114,-105.13ZM124.364,-105.068L124.395,-104.849L124.364,-105.068ZM205.301,-103.443C205.932,-102.554 206.158,-102.233 205.301,-103.443ZM88.423,-100.412L88.204,-99.88L88.423,-100.412ZM206.011,-100.068C206.105,-99.883 205.685,-99.917 206.011,-100.068ZM94.453,-99.88L94.609,-99.63L94.453,-99.88ZM88.171,-99.568L88.328,-98.724L88.171,-99.568ZM111.765,-99.537C111.948,-99.472 111.756,-98.952 111.765,-99.537ZM124.546,-98.349C124.816,-98.386 123.997,-97.612 124.546,-98.349ZM203.576,-97.849L203.17,-97.131L203.576,-97.849ZM225.42,-97.755C220.822,-96.981 227.31,-92.767 224.67,-89.849C221.481,-90.219 223.375,-84.879 217.857,-86.224C212.147,-81.701 219.63,-83.766 222.677,-84.562C224.986,-79.178 223.855,-87.468 227.545,-84.474C231.597,-84.748 229.082,-88.463 229.17,-92.068C229,-95.219 225.737,-95.764 225.42,-97.756L225.42,-97.755ZM113.981,-97.693L114.044,-97.537L113.981,-97.693ZM96.2,-97.443L96.232,-97.349L96.2,-97.443ZM120.763,-97.037L120.482,-96.881L120.763,-97.037ZM202.981,-96.974L202.856,-96.881L202.981,-96.974ZM111.763,-96.381C112.262,-96.203 111.405,-95.846 111.763,-96.381ZM118.263,-95.068C118.635,-95.101 117.292,-94.085 118.263,-95.068ZM107.044,-90.131C107.25,-90.185 107.176,-89.681 107.044,-90.131ZM121.232,-89.787C121.575,-89.822 121.638,-88.684 121.232,-89.787ZM109.42,-89.693L109.576,-89.537L109.42,-89.693ZM122.67,-88.787L122.858,-88.631L122.67,-88.787ZM99.639,-86.412C99.782,-86.14 99.438,-86.382 99.639,-86.412ZM126.483,-86.287C126.313,-85.243 125.965,-86.304 126.483,-86.287ZM220.451,-83.787C216.768,-82.027 219.774,-79.557 221.888,-82.162C222.323,-83.309 221.481,-83.792 220.451,-83.787ZM99.642,-83.349C99.751,-83.006 99.535,-81.778 99.642,-83.349ZM215.671,-82.881C212.381,-80.132 217.581,-82.022 217.108,-77.381C219.723,-77.3 218.426,-83.246 215.671,-82.881ZM208.952,-82.443C206.913,-81.172 211.082,-82.206 208.952,-82.443ZM99.394,-81.818L99.362,-81.506L99.394,-81.818ZM218.112,-76.381C216.164,-75.349 219.416,-75.731 218.112,-76.381ZM122.801,-76.256L122.864,-75.975L122.801,-76.256ZM133.645,-72.756C134.112,-72.415 133.587,-72.599 133.645,-72.756ZM217.269,-72.193C214.93,-70.975 218.964,-70.929 217.269,-72.193ZM215.957,-68.85C213.7,-66.881 217.453,-68.1 215.957,-68.85ZM150.051,-67.35L150.145,-67.225L150.051,-67.35ZM149.989,-65.943L149.958,-65.818L149.989,-65.943ZM205.3,-65.725C201.083,-62.098 206.98,-56.913 205.956,-63.381C205.946,-64.121 206.427,-65.56 205.3,-65.725ZM172.489,-59.944C172.367,-58.641 172.367,-58.641 172.489,-59.944ZM171.082,-57.725C171.438,-57.508 170.277,-57.121 171.082,-57.725ZM170.614,-56.506C170.66,-55.628 170.54,-55.647 170.614,-56.506ZM187.988,-55.35C180.422,-52.548 191.541,-50.193 188.52,-55.319L187.988,-55.35L187.988,-55.35ZM171.677,-53.444C172.502,-53.002 171.414,-52.967 171.677,-53.444ZM206.77,-52.35C206.423,-48.296 203.796,-46.583 207.958,-44.006C208.964,-41.574 212.815,-43.39 212.676,-40.631C212.961,-35.846 215.654,-44.37 211.216,-43.854C206.058,-44.151 212.698,-50.471 208.388,-52.292C207.84,-52.06 207.321,-52.438 206.77,-52.35L206.77,-52.35ZM177.896,-51.537L177.927,-51.381L177.896,-51.537ZM177.958,-51.194C178.251,-50.631 178.102,-50.658 177.958,-51.194ZM172.271,-51.037C172.526,-50.831 172.061,-50.824 172.271,-51.037ZM179.427,-48.381C180.648,-47.775 179.105,-47.737 179.427,-48.381ZM169.646,-47.412C169.826,-46.656 169.713,-46.613 169.646,-47.412ZM159.396,-42.506C156.833,-38.425 161.165,-36.439 159.552,-42.444L159.396,-42.506L159.396,-42.506L159.396,-42.506ZM170.365,-42.35L170.333,-42.038L170.365,-42.35ZM207.645,-42.35C208.108,-37.067 212.001,-41.877 207.645,-42.35ZM215.52,-40.725C214.71,-38.671 208.835,-32.902 213.426,-34.1C214.469,-39.154 217.92,-33.708 216.051,-40.444L215.52,-40.725L215.52,-40.725L215.52,-40.725ZM210.489,-40.288C209.035,-33.809 214.607,-37.033 210.489,-40.288ZM206.927,-40.1C205.451,-38.609 209.048,-39.213 206.927,-40.1ZM205.802,-37.756C203.53,-34.62 201.558,-29.482 205.395,-35.194C206.621,-35.187 206.904,-37.242 205.802,-37.756ZM169.802,-37.413L169.708,-37.163L169.802,-37.413ZM158.677,-37.194C158.906,-36.507 159.814,-37.173 158.677,-37.194ZM214.988,-35.6C212.282,-34.1 217.149,-34.058 214.988,-35.6ZM137.645,-35.225C137.184,-33.062 136.327,-24.638 140.77,-28.913C140.528,-31.16 139.13,-33.804 137.645,-35.225ZM216.956,-34.819C216.827,-30.891 209.794,-33.725 211.581,-29.131C214.392,-32.246 216.042,-30.656 216.3,-27.506C219.385,-25.98 216.26,-31.232 219.216,-28.589C219.435,-30.801 218.769,-33.551 216.956,-34.819L216.956,-34.819ZM233.268,-30.819C231.556,-29.133 234.498,-29.897 233.268,-30.819ZM161.644,-30.038C160.489,-28.761 163.229,-28.707 161.644,-30.038ZM173.175,-29.85L173.206,-29.538L173.175,-29.85ZM202.831,-29.381C200.545,-28.14 199.851,-25.109 197.331,-24.413C194.934,-21.959 192.913,-17.87 189.737,-19.506C187.105,-16.403 190.721,-13.592 191.143,-10.538C192.106,-7.819 196.835,-10.445 198.612,-7.788C201.579,-7.009 203.827,-13.577 204.049,-16.538C210.274,-16.445 200.503,-21.971 205.393,-24.007C207.735,-27.231 205.074,-26.439 202.831,-29.381L202.831,-29.381ZM211.768,-28.569C209.536,-28.268 212.648,-27.573 211.768,-28.569ZM210.143,-27.725C207.996,-27.343 211.171,-26.707 210.143,-27.725ZM164.956,-27.069C165.14,-22.787 170.644,-20.869 171.487,-16.6C174.048,-14.035 174.856,-8.422 178.674,-6.381C181.622,-0.415 185.372,-6.926 183.049,-10.194C179.74,-11.847 180.215,-15.701 178.143,-17.287C176.291,-19.721 172.884,-20.961 170.268,-23.881C169.102,-26.814 167.217,-25.622 164.955,-27.068L164.956,-27.069ZM230.861,-25.038C229.628,-23.78 233.011,-24.116 230.861,-25.038ZM219.955,-24.506C218.685,-23.691 220.877,-23.04 219.955,-24.506ZM165.831,-21.444C163.628,-20.113 168.805,-20.478 165.831,-21.444ZM223.049,-20.725C221.769,-19.531 224.241,-18.329 223.049,-20.725ZM222.143,-19.694C219.608,-17.552 222.173,-10.957 222.361,-15.132C224.392,-16.435 224.056,-18.368 222.143,-19.694ZM217.205,-19.069C215.341,-14.943 209.92,-20.154 207.701,-16.236C205.693,-11.476 206.919,-8.958 206.982,-5.065C210.024,-0.591 208.542,-14.259 209.887,-8.618C210.415,-5.253 213.745,-5.478 212.799,-9.194C207.998,-11.698 218.385,-15.608 211.804,-13.816C207.38,-11.609 208.958,-18.714 214.24,-15.954C215.966,-15.316 218.564,-17.891 217.205,-19.069L217.205,-19.069ZM125.55,-17.163C124.221,-15.55 126.965,-15.945 125.55,-17.163ZM181.362,-15.507C179.684,-14.159 183.302,-15.08 181.362,-15.507ZM170.268,-15.101C168.876,-14.368 171.457,-14.062 170.268,-15.101ZM226.798,-13.976C225.905,-13.061 227.537,-13.699 226.798,-13.976ZM170.705,-13.632C168.938,-12.268 173.628,-11.343 170.705,-13.632ZM213.892,-13.132C210.803,-11.594 216.996,-12.48 213.892,-13.132ZM221.705,-12.819C218.948,-10.875 225.322,-12.115 221.705,-12.819ZM183.205,-12.569C179.31,-11.426 187.642,-7.171 183.986,-11.226C184.177,-11.629 183.817,-12.688 183.205,-12.569ZM215.955,-12.507C214.542,-9.967 220.951,-12.285 215.955,-12.507ZM226.236,-12.288C223.101,-10.881 229.367,-10.827 226.236,-12.288ZM172.674,-11.257C171.222,-9.788 174.402,-11.111 172.674,-11.257ZM218.83,-11.069C217.691,-10.484 219.94,-10.215 218.83,-11.069ZM186.83,-10.694C183.743,-8.134 189.694,-8.804 186.83,-10.694ZM223.236,-9.944C220.189,-6.478 232.421,-8.249 224.642,-9.663L223.985,-9.819L223.236,-9.944L223.236,-9.944L223.236,-9.944ZM219.454,-9.444C217.117,-7.098 223.901,-7.922 219.454,-9.444ZM213.611,-6.632C208.62,-3.226 215.605,-3.253 213.611,-6.632ZM230.954,-4.757C229.434,-3.386 231.622,-3.733 230.954,-4.757ZM233.736,-4.507C229.421,-0.768 235.27,-0.718 233.736,-4.507ZM208.798,-3.757C207.089,-2.634 210.059,-2.586 208.798,-3.757ZM183.486,-3.726C179.441,-0.721 185.667,-0.217 188.642,0.087C190.806,2.02 201.852,1.621 195.705,-0.257C193.765,-4.186 190.543,-0.916 187.569,-2.692C187.079,-4.141 184.603,-3.197 183.486,-3.726L183.486,-3.726ZM195.736,-2.226C194.453,0.979 200.345,-2.938 195.736,-2.226ZM228.048,-1.32C224.182,1.679 229.507,1.011 228.235,-1.32L228.048,-1.32ZM219.423,-0.476C215.052,0.241 219.51,1.556 219.423,-0.476ZM203.923,0.493C195.547,4.405 210.897,2.164 203.923,0.493ZM199.423,0.68C195.227,1.098 201.563,2.85 199.423,0.68ZM201.142,0.68C197.659,3.18 202.688,3.372 201.142,0.68ZM208.611,0.774C201.892,4.905 217.517,0.52 210.305,1.429C209.491,1.816 209.544,0.345 208.611,0.774ZM213.798,0.805C211.475,1.433 215.463,2.493 213.798,0.805ZM219.142,1.024C214.232,0.608 210.626,8.622 216.829,3.462C217.307,2.691 222.335,1.821 219.142,1.024ZM205.892,2.899C206.212,6.363 210.634,3.434 205.892,2.899ZM212.611,5.68C209.307,6.684 214.217,7.123 212.611,5.68Z" style="fill:rgb(59,140,110);fill-rule:nonzero;"/>
        </g>
        <g transform="matrix(1,0,0,1,315.176,46.3904)">
            <g transform="matrix(1,0,0,1,37,-3)">
                <path d="M19.286,40.933C19.165,40.984 19.408,40.984 19.286,40.933ZM64.191,41.183L64.191,41.308L64.191,41.183ZM68.973,42.152L68.91,42.183L68.973,42.152ZM37.817,44.683C34.356,44.764 40.87,46.894 37.973,48.496C35.642,49.564 32.406,49.208 30.381,48.135C28.414,47.133 25.182,46.928 23.013,48.232C22.612,50.054 17.862,47.763 19.786,49.933C18.484,51.115 16.335,49.845 14.942,50.871C13.626,52.658 18.121,53.021 15.317,54.308C12.642,53.333 15.263,55.684 16.536,55.496C17.313,56.753 17.045,58.308 19.499,57.952C20.67,60.182 22.5,58.006 23.942,57.746C26.457,60.217 28.979,57.737 31.755,57.746C30.54,59.461 31.847,61.764 31.114,63.62C30.655,65.423 30.677,69.578 27.908,68.993C25.428,68.166 26.063,69.493 26.942,71.052C28.03,72.094 28.671,76.875 30.51,75.171C30.871,73.952 30.836,70.886 31.148,73.492C29.886,76.253 33.768,76.434 34.508,78.887C35.527,81.569 37.045,83.051 38.973,85.058C38.779,88.113 40.159,90.596 42.723,91.87C42.997,94.182 44.902,95.94 46.223,97.651C47.589,99.057 44.935,100.096 46.754,101.682C47.161,103.776 47.373,107.312 50.473,105.245C52.914,103.906 55.566,103.989 57.473,102.432C59.299,101.08 63.306,101.485 62.748,98.567C64.188,97.302 66.769,97.528 68.254,96.901C66.748,94.969 70.68,95.781 70.317,93.745C72.145,91.971 71.95,89.978 73.967,88.645C76.436,86.53 73.21,86.429 73.286,84.652C71.157,84.326 68.19,83.211 68.442,80.558C67.44,80.041 68.725,77.502 67.525,79.431C66.211,80.99 65.01,84.477 62.317,82.901C59.706,84.329 60.118,81.005 59.929,79.538C58.252,78.292 59.725,83.614 58.314,80.949C57.259,79.254 57.227,77.506 55.501,76.159C54.738,74.832 53.352,73.118 52.97,72.183C55.166,71.181 51.417,69.344 52.019,67.388C50.593,65.915 48.778,65.222 47.858,63.23C47.961,61.558 49.394,59.28 46.974,58.917C46.349,57.915 45.146,56.514 44.717,55.099C45.493,54.936 42.758,51.834 44.963,53.371C46.632,54.224 47.902,53.182 49.431,52.372C50.727,52.235 50.218,55.367 52.161,54.964C51.573,53.278 52.553,50.716 54.037,51.008C52.013,49.88 50.331,47.607 47.686,48.208C44.827,47.73 42.977,45.213 40.13,45.683C39.64,44.867 38.719,44.606 37.817,44.683L37.817,44.683ZM36.848,45.277C36.03,44.765 36.697,45.376 36.848,45.277ZM50.848,48.465C50.82,48.623 51.088,48.426 50.848,48.465ZM28.286,60.058C27.276,60.377 24.295,61.749 27.014,61.935C27.639,61.957 29.789,60.399 28.286,60.058ZM51.536,71.277L51.599,71.465L51.536,71.277ZM50.724,72.277C50.677,72.733 50.713,72.921 50.724,72.277ZM67.223,77.246C64.889,78.182 68.646,78.674 67.223,77.246ZM57.817,78.402C56.942,79.681 59.194,78.998 57.817,78.402ZM33.318,85.058C33.258,85.274 33.497,85.067 33.318,85.058ZM65.411,105.808C62.499,106.596 66.937,107.123 66.396,105.873L65.88,105.871L65.411,105.808L65.411,105.808Z" style="fill:rgb(59,140,110);fill-rule:nonzero;"/>
            </g>
        </g>
    </g>
</svg>
