<?xml version="1.0" encoding="UTF-8" standalone="no"?>
<!DOCTYPE svg PUBLIC "-//W3C//DTD SVG 1.1//EN" "http://www.w3.org/Graphics/SVG/1.1/DTD/svg11.dtd">
<svg width="100%" height="100%" viewBox="0 0 1920 837" version="1.1" xmlns="http://www.w3.org/2000/svg" xmlns:xlink="http://www.w3.org/1999/xlink" xml:space="preserve" xmlns:serif="http://www.serif.com/" style="fill-rule:evenodd;clip-rule:evenodd;stroke-linejoin:round;stroke-miterlimit:2;">
    <g transform="matrix(1,0,0,1,1.13687e-13,-32.7342)">
        <g id="world-map-153509.svg" transform="matrix(3.06376,0,0,3.06376,960,450.739)">
            <g transform="matrix(1,0,0,1,-313.34,-136.435)">
                <clipPath id="_clip1">
                    <rect x="0" y="0" width="626.68" height="272.87"/>
                </clipPath>
                <g clip-path="url(#_clip1)">
                    <path d="M160.424,137.848C158.644,140.276 152.982,139.423 152.959,143.345C151.514,144.773 150.392,145.632 149.331,147.348C149.107,149.542 149.43,153.73 148.689,156.878C146.91,158.772 145.241,160.985 143.268,162.973C140.196,165.24 144.257,167.625 144.143,168.535C141.61,169.94 141.395,174.427 144.018,175.41C147.279,178.005 148.361,183.357 150.924,187.004C152.182,191.986 156.123,195.03 160.643,196.879C163.31,198.712 164.933,201.906 164.542,205.819C163.158,210.139 165.363,214.267 164.778,218.79C163.024,222.01 165.843,226.17 164.956,229.691C164.502,233.926 165.274,238.086 165.268,241.941C165.087,245.806 170.301,244.831 168.655,248.782C170.315,250.438 169.692,252.889 169.982,255.545C168.941,258.164 172.411,257.43 170.737,260.191C172.236,262.361 173.956,265.248 175.791,266.853C178.615,264.979 179.772,269.501 176.84,266.902C176.206,268.106 177.908,270.245 179.424,268.503C180.321,265.407 183.93,266.859 180.83,264.41C179.532,261.347 184.027,258.748 182.842,256.171C179.117,256.077 179.124,252.559 181.58,251.41C181.221,249.179 182.892,247.216 181.518,246.629C179.927,245.387 179.198,242.447 182.705,244.348C186.349,244.803 181.913,238.339 186.955,240.098C192.174,240.866 192.905,233.164 189.049,232.285C185.999,228.975 191.108,232.123 192.611,231.973C196.269,232.987 196.837,227.839 198.576,225.753C201.327,222.154 202.729,217.316 202.424,213.036C205.234,209.665 209.7,208.962 213.08,207.317C215.276,204.299 216.416,201.297 217.173,197.755C217.724,194.692 216.406,191.322 217.236,188.349C219.641,185.669 222.689,182.4 223.517,178.724C225.595,174.1 221.388,172.405 218.454,171.161C216.016,167.112 211.079,167.439 207.255,167.866C207.906,165.945 202.779,162.592 200.611,164.38C199.785,166.91 196.61,166.569 199.673,164.849C202.26,161.495 194.696,161.952 195.643,164.948C190.906,167.431 197.362,161.666 197.857,159.741C195.287,158.544 196.134,154.74 194.057,152.854C191.611,150.523 187.268,151.452 184.799,149.849C182.188,148.533 181.658,144.961 178.33,144.849C180.525,142.01 173.851,143.01 176.873,140.916C173.622,140.722 171.448,143.17 168.127,141.325C165.266,141.861 164.472,138.388 162.392,138.537C164.59,140.749 156.838,141.934 160.9,138.963C161.454,138.522 161.242,137.58 160.424,137.849L160.424,137.848ZM179.018,148.754L178.518,148.848L179.018,148.754ZM178.081,149.035L177.956,149.254L178.081,149.035ZM162.706,149.098L162.831,149.629L162.706,149.098ZM172.487,156.348L172.424,156.973L172.487,156.348ZM180.018,156.629L179.924,156.973L180.018,156.629ZM187.112,158.035C186.831,158.475 186.807,157.818 187.112,158.035ZM150.737,167.41L150.143,167.535L150.737,167.41ZM149.393,167.879C148.045,168.489 148.035,168.346 149.393,167.879ZM161.237,170.691C161.485,170.623 160.935,171.094 161.237,170.691ZM144.081,171.16C144.435,171.29 144.044,171.28 144.081,171.16ZM146.363,172.097L146.175,172.191L146.363,172.097ZM156.737,175.129C156.772,175.378 155.967,175.461 156.737,175.129ZM157.206,180.879L157.206,181.004L157.206,180.879ZM184.706,202.378L185.143,202.441L184.706,202.378ZM169.768,205.441C169.853,206.448 169.674,206.341 169.768,205.441ZM171.518,206.409C170.857,206.799 170.837,206.68 171.518,206.409ZM171.112,209.503L171.081,209.941L171.112,209.503ZM181.737,210.066C182.506,209.697 182.467,211.585 181.737,210.066ZM182.862,211.222L183.205,211.316L182.862,211.222ZM170.55,211.503C170.687,212.639 170.552,212.686 170.55,211.503ZM166.612,219.753L166.55,220.253L166.612,219.753ZM188.987,221.066C188.566,221.856 188.176,222.363 188.987,221.066ZM168.456,233.221L168.613,233.784L168.456,233.221ZM166.644,245.909C164.579,248.433 169.191,250.65 167.3,246.378L166.894,245.972L166.644,245.909L166.644,245.909ZM170.144,248.097L170.3,248.222L170.144,248.097ZM170.55,249.034C170.836,249.646 170.685,249.603 170.55,249.034ZM171.362,250.597C172.195,250.838 171.561,250.956 171.362,250.597ZM169.394,251.097C168.157,251.56 170.57,252.266 169.394,251.097ZM168.425,251.597C165.41,252.935 171.106,253.887 168.425,251.597ZM168.644,253.909C163.016,256.177 172.795,255.946 168.644,253.909ZM172.769,255.628L172.894,255.784L172.769,255.628ZM169.05,257.94C166.354,258.201 170.553,259.825 169.05,257.94ZM169.769,259.534C166.995,259.153 170.446,263.317 170.331,259.972C170.334,259.69 170.036,259.475 169.769,259.534ZM175.769,264.628L176.237,264.753L175.769,264.628ZM171.862,264.972C170.397,266.169 172.878,265.817 171.862,264.972ZM180.05,265.159C182.165,265.997 182.135,266.107 180.05,265.159ZM182.519,266.972C179.074,266.952 181.81,268.511 181.738,268.925C182.03,270.401 183.5,270.371 180.362,270.003C176.647,270.931 186.752,271.56 184.737,270.722C187.338,271.888 191.362,270.576 186.487,269.94C184.576,269.434 183.739,267.635 182.518,266.972L182.519,266.972ZM173.425,267.097C173.933,269.18 177.422,267.105 173.425,267.097ZM180.112,267.972C178.556,269.335 181.655,269.118 180.112,267.972ZM175.925,268.472C175.048,269.803 179.406,270.748 175.925,268.472ZM185.956,271.065C180.501,271.432 186.786,273.743 186.612,271.222L186.313,271.077L185.956,271.065L185.956,271.065ZM188.206,272.003C183.222,272.417 190.032,273.731 188.206,272.003Z" style="fill:rgb(11,43,64);fill-rule:nonzero;"/>
                    <path d="M221.813,0C215.521,0.546 208.771,0.556 203.158,1.219C200.128,1.593 197.3,2.716 194.533,1.75C189.465,1.814 182.347,2.863 178.564,4.656C177.154,6.275 163.552,7.106 174.158,7.687C177.91,8.616 165.884,7.721 171.939,10.25C174.988,10.535 177.343,8.948 179.345,9.844C185.194,9.052 183.017,16.277 183.439,17.625C188.818,17.739 184.848,19.47 183.355,19.237C191.813,21.599 179.493,22.055 181.697,25.457C180.388,27.42 182.137,32.059 183.439,34.812C186.429,34.844 188.302,38.262 191.033,36.156C192.579,33.182 195.473,31.739 195.627,29.75C196.305,28.387 200.981,26.334 202.033,27C206.282,26.95 208.241,21.469 212.313,22.812C216.732,22.833 227.053,17.687 216.563,19.718C215.834,19.136 219.946,16.775 221.938,18.656C226.158,18.376 218.863,16.029 220.284,14.45C223.015,16.621 226.188,13.16 227.72,12.125C230.099,12.781 229.126,8.738 228.595,8.344C229.469,7.126 229.835,4.443 232.782,3.844C241.254,2.801 233.193,1.497 229.001,2.687C222.984,5.966 229.715,0.99 223.626,2.281C230.074,0.964 227.454,1.466 221.814,0L221.813,0ZM172.814,0.531C166.672,0.678 161.472,2.141 155.095,2.344C150.895,4.13 168.69,3.877 158.251,4.437C155.965,4.231 162.213,8.359 156.095,6.531C154.222,6.304 144.315,10.4 150.314,9.75C155.301,8.421 158.06,12.226 161.626,8.594C166.083,7.651 168.094,3.087 173.064,5.063C176.112,2.654 184.993,3.174 184.97,1.407C180.937,0.597 176.692,1.14 172.814,0.532L172.814,0.531ZM151.626,2.656C145.638,3.455 144.787,6.191 149.845,5.781C142.12,7.117 153.442,7.501 155.908,5.937C158.621,4.276 155.132,4.937 153.876,3.906C152.71,4.204 152.992,2.385 151.626,2.656L151.626,2.656ZM135.377,5.312C129.868,6.948 141.213,9.543 138.752,5.937C137.54,6.175 136.59,5.142 135.377,5.312ZM127.095,5.844C123.198,8.425 133.841,5.966 127.095,5.844ZM141.907,6.312C139.423,8.885 148.289,6.546 141.907,6.312ZM123.908,7C118.816,7.686 125.073,8.694 123.908,7ZM127.126,7.094C120.013,7.569 126.304,9.718 127.126,7.094ZM131.345,7.406C128.669,9.552 133.461,8.818 131.345,7.406ZM143.97,7.781C137.477,7.635 147.316,9.403 143.97,7.781ZM118.658,7.812C116.344,8.037 106.983,9.432 109.877,10.625C112.112,10.174 119.469,10.077 118.658,7.812ZM148.658,7.843C144.125,8.136 148.62,9.589 148.658,7.843ZM141.689,8.875C135.516,9.846 146.543,9.182 141.97,12.125C145.777,13.604 149.094,11.36 153.689,13.062C162.24,10.979 150.658,10.139 147.814,10.781C146.06,11.094 145.973,8.406 141.689,8.875L141.689,8.875ZM124.22,9.125C122.246,13.095 116.585,7.749 112.564,11.5C114.09,12.489 118.311,10.487 115.596,12.937C118.07,12.617 131.477,11.034 125.221,10.562C125.695,9.396 125.89,8.965 124.221,9.125L124.22,9.125ZM134.97,9.25C127.763,11.594 139.144,13.144 137.126,9.343C136.478,10.396 135.95,8.81 134.97,9.25ZM130.126,9.375C129.064,12.437 134.249,10.235 130.126,9.375ZM128.408,11.093C125.6,11.678 129.299,12.547 128.783,11.187L128.408,11.093ZM139.564,11.25C132.107,11.93 143.589,13.064 139.564,11.25ZM103.97,12.625C102.227,13.907 93.5,16.616 98.376,18.187C102.573,16.846 107.861,15.003 111.438,13.875C109.375,12.403 106.493,13.434 103.969,12.625L103.97,12.625ZM139.908,13.281C133.338,13.44 133.073,18.195 139.22,15.5C140.834,14.282 144.936,13.428 139.908,13.281ZM147.095,13.593C143.119,13.608 137.71,17.807 141.564,18.375C134.825,19.044 146.526,20.245 148.751,20.593C152.808,17.811 154.368,21.713 153.751,22.406C158.377,21.234 157.214,26.566 153.157,26.656C154.035,29.91 144.365,25.891 147.028,30.313C149.843,28.828 155.697,29.564 153.47,32.124C156.29,33.321 163.507,35.267 157.961,31.036C160.469,33.232 165.416,32.405 162.689,28.749C159.411,23.201 166.36,29.772 168.282,27.749C172.693,25.332 168.614,24.811 166.595,23.281C160.403,22.033 169.419,21.249 164.595,18.656C160.508,17.547 157.137,14.229 152.876,16.375C154.867,14.766 148.32,12.64 145.657,16.562C145.515,20.459 144.491,13.71 148.564,13.812C148.163,13.405 147.542,13.885 147.095,13.593L147.095,13.593ZM133.97,13.75C128.272,13.706 129.011,15.109 126.001,15.968C129.198,20.141 132.282,15.536 134.157,14.531L134.157,13.875L133.97,13.75L133.97,13.75ZM124.876,13.781C119.296,13.666 126.746,16.484 124.876,13.781ZM154.22,13.937C152.732,17.147 163.658,13.541 154.751,13.937L154.22,13.937ZM120.158,14.687C117.256,19.167 118.218,14.727 113.846,15.156C111.426,15.872 107.926,14.373 104.159,17.437C106.938,18.271 100.21,19.559 106.909,19.062C116.42,19.889 95.167,20.258 106.127,21.124C105.185,25.345 114.492,19.361 116.689,21.874C120.268,22.118 125.748,20.109 120.845,18.312C121.901,17.275 123.187,14.163 120.158,14.687L120.158,14.687ZM133.689,16.968C129.063,17.696 130.7,21.04 129.846,21.624C131.929,22.407 126.152,24.32 125.814,24.249C127.806,20.352 121.479,25.256 119.408,23.968C116.807,23.412 112.148,20.657 111.408,23.156C117.407,23.282 107.496,25.234 105.346,23.906C98.045,25.026 107.968,21.303 101.565,21.812C97.152,19.421 92.227,21.82 90.507,19.721C89.061,19.315 77.972,24.228 81.596,21.406C90.747,18.9 81.46,20.305 77.472,21.343C73.892,22.406 69.702,19.076 65.628,19.718C60.023,19.334 55.695,17.327 50.066,19.124C45.53,19.661 40.826,21.871 36.285,23.093C39.601,24.517 37.108,28.076 35.66,26.468C36.516,24.925 25.264,27.877 29.535,28.468C24.957,30.574 38.409,28.425 31.504,30.562C29.024,33.112 23.068,31.99 21.348,35.468C18.121,38.862 26.982,36.496 20.848,39.999C23.355,39.944 24.73,40.364 26.754,40.03C29.558,40.056 20.994,43.361 19.098,44.155C14.606,44.416 8.167,48.396 16.254,45.999C21.503,45.246 25.655,42.079 30.973,40.999C33.89,38.556 37.324,37.411 41.067,35.468C45.359,35.164 32.241,38.842 37.755,39.187C41.955,39.196 44.176,34.485 47.129,37.031C50.248,36.995 55.992,39.226 56.004,41.281C52.471,46.112 58.566,43.042 58.692,40.718C58.748,44.148 59.153,47.399 57.377,50.232C60.313,49.417 57.303,53.908 58.754,54.655C61.751,55.8 63.738,61.359 58.754,60.374C57.198,59.754 56.177,68.104 52.504,69.718C49.533,73.37 49.373,77.922 50.004,82.062C49.866,83.512 50.398,87.668 53.723,88.187C56.304,91.319 55.13,96.641 57.442,99.624C51.604,101.348 61.068,101.877 59.442,105.562C59.825,109.578 65.309,111.309 61.536,107.093C60.559,103.438 60.382,98.782 58.098,96.343C57.273,88.845 62.4,95.064 61.942,99.374C64.977,101.77 63.66,106 68.004,108.624C70.922,111.821 68.191,114.984 69.817,117.405C71.795,120.561 76.542,121.02 79.754,123.593C84.515,125.905 88.454,121.152 91.004,127.968C94.921,129.693 98.48,128.107 100.16,132.343C100.786,137.134 103.19,134.693 104.232,138.459C107.352,139.286 110.501,142.879 111.129,138.155C113.435,137.643 116.48,143.406 114.566,137.405C111.102,134.889 106.425,139.947 105.066,134.436C104.018,130.587 108.614,123.676 102.441,123.812C96.537,124.739 95.986,123.397 98.754,118.405C99.037,117.617 104.078,110.92 98.629,112.843C94.494,112.917 94.511,117.557 92.343,118.911C89.105,118.559 84.33,119.669 83.754,114.781C81.258,110.243 85.618,106.302 85.504,102.062C85.692,99.183 90.322,97.587 92.879,96.28C95.302,96.076 100.675,100.138 100.16,96.124C100.673,93.319 106.671,97.026 108.722,95.874C112.819,97.185 109.315,104.211 113.347,105.624C117.213,102.231 111.556,95.4 115.66,91.812C118.486,89.248 121.844,88.069 124.347,84.812C127.709,85.014 124.233,77.188 127.415,77.568C124.432,84.203 128.615,79.694 129.316,77.562C131.979,75.295 134.366,72.265 138.597,73.125C137.366,71.157 139.018,68.016 143.034,67.375C144.153,66.851 150.473,63.621 147.972,66.125C142.782,70.834 152.14,66.844 154.659,65.719C154.729,64.121 148.204,63.846 150.19,60.25C146.556,61.408 157.064,56.669 148.909,57.844C144.196,59.901 141.262,60.178 147.753,57.688C152.112,53.024 159.819,58.806 164.128,53.469C170.66,52.389 166.801,47.607 164.596,45.906C159.864,44.711 163.459,41.947 160.94,38.157C160.316,33.652 156.125,43.435 153.003,39.25C156.131,34.962 151.498,33.243 147.503,33.407C143.296,31.315 141.114,39.612 140.409,40.407C143.917,46.298 133.101,44.874 133.628,49.625C133.717,55.485 126.33,54.009 129.378,48.813C131.939,44.21 123.868,47.216 123.128,43.5C118.743,42.466 117.589,43.697 117.535,39.375C116.384,37.316 122.177,33.834 124.816,32.844C126.835,30.864 126.861,31.419 129.972,30.032C134.016,30.951 136.086,25.386 139.128,26.001C140.455,26.12 146.557,25.993 145.065,22.563C150.364,21.601 142.392,18.939 141.034,22.219C137.105,26.245 136.626,22.955 136.847,21.344C134.038,23.56 134.831,20.174 135.253,18.501C135.911,17.516 134.336,17.077 133.691,16.969L133.689,16.968ZM182.908,19.374C178.371,21.81 188.941,21.235 183.626,19.656L182.908,19.374ZM126.814,20.124C118.765,22.174 131.812,23.355 126.971,20.124L126.814,20.124ZM151.345,20.781C147.801,21.521 150.928,22.97 151.345,20.781ZM19.597,21.562L19.753,21.624L19.597,21.562ZM153.065,22.812C145.036,25.779 158.05,24.394 153.065,22.812ZM154.69,23.124C154.088,25.567 157.934,23.028 154.69,23.124ZM138.69,27.031C135.102,28.443 130.629,32.53 136.315,31.249C138.671,29.161 144.889,33.378 140.971,29.093C140.295,28.068 138.647,28.228 138.69,27.031L138.69,27.031ZM146.503,30.593C146.008,32.085 148.435,31.489 146.503,30.593ZM144.971,30.937C142.895,32.249 147.25,31.94 144.971,30.937ZM138.065,32.03C131.034,34.198 141.359,33.78 138.065,32.03ZM141.284,33.124C138.183,34.991 143.335,34.374 141.284,33.124ZM161.19,34.124C159.061,35.694 162.886,35.003 161.19,34.124ZM17.912,36.749C12.746,37.896 20.713,38.638 17.912,36.749ZM33.38,40.124C29.332,41.753 36.547,41.189 33.38,40.124ZM31.349,41.28C27.357,44.029 34.985,41.628 31.349,41.28ZM58.13,43.03C52.941,44.619 61.392,44.749 58.13,43.03ZM136.191,43.624C131.307,46.216 139.695,44.317 136.191,43.624ZM57.254,44.624C53.568,48.268 59.552,48.432 57.254,44.624ZM10.317,46.499C4.825,47.801 11.449,48.686 10.317,46.499ZM55.691,46.937C55.177,47.413 56.494,47.422 55.691,46.937ZM3.88,48.562C-0.225,51.016 6.217,50.129 3.88,48.562ZM54.535,48.624C49.634,51.573 60.304,48.595 54.535,48.624ZM1.036,49.374C-1.793,50.775 2.236,50.86 1.036,49.374ZM129.914,49.937C126.516,51.47 133.122,50.971 129.914,49.937ZM54.477,50.28C51.96,50.331 54.926,54.31 54.602,50.437L54.477,50.28ZM167.036,53.218C164.267,54.18 155.373,61.848 161.629,60.999C166.564,60.145 162.667,63.991 167.374,61.022C166.943,65.345 170.95,59.856 168.754,59.718C169.806,55.649 166.196,57.888 165.129,55.749C165.373,54.905 168.022,54.128 167.036,53.218L167.036,53.218ZM55.787,54.499C55.298,58.29 63.758,61.649 59.318,55.811C57.917,55.406 57.31,54.414 55.787,54.499ZM152.88,56.218C154.421,60.177 158.887,56.372 152.88,56.218ZM117.661,58.718C117.846,58.673 118.138,59.171 117.661,58.718ZM155.599,60.655C153.812,61.828 156.047,61.852 155.599,60.655ZM151.255,61.905C150.982,65.531 156.873,63.114 151.536,61.936L151.255,61.905ZM156.786,61.936C151.432,65.365 159.505,65.664 156.786,61.936ZM122.412,65.718L122.443,66.03L122.412,65.718ZM124.38,69.967C124.596,70.132 124.212,70.141 124.38,69.967ZM109.6,109.342C103.187,110.885 105.566,113.534 109.724,110.279C110.788,112.135 114.005,111.338 115.506,113.779C118.185,118.209 125.808,114.522 118.881,113.217C115.42,111.527 113.633,108.951 109.599,109.342L109.6,109.342ZM108.225,111.779C105.122,113.093 110.957,113.278 108.225,111.779ZM125.943,115.779C121.115,115.304 128.867,120.138 121.85,118.498C124.991,121.607 128.329,118.45 131.599,119.436C134.493,117.547 127.613,115.666 125.943,115.779L125.943,115.779ZM134.631,118.436C133.664,121.802 140.854,118.228 134.631,118.436ZM136.349,119.873C136.126,120.037 137.124,119.821 136.349,119.873ZM115.631,118.686C115.336,121.926 121.672,118.568 115.631,118.686L115.631,118.686Z" style="fill:rgb(22,71,115);fill-rule:nonzero;"/>
                    <g transform="matrix(1,0,0,1,334.266,184.208)">
                        <g transform="matrix(1,0,0,1,-14,7.81485)">
                            <path d="M230.293,-13.365C227.7,-10.97 234.625,-12.599 230.293,-13.365ZM233.293,-12.521C231.069,-11.914 229.969,-9.996 232.316,-9.433C233.719,-7.966 237.546,-8.346 233.356,-7.959C231.644,-7.882 234.387,-5.604 234.466,-4.769C236.659,-7.036 238.653,-2.327 241.887,-3.178C245.238,-1.251 242.658,4.023 246.824,3.885C247.185,7.328 252.147,5.298 252.482,3.165C254.566,1.255 257.722,3.415 257.984,5.413C259.241,7.231 262.393,8.293 264.324,7.947C263.078,6.028 261.227,5.394 260.262,3.166C257.602,1.594 261.241,-1.249 257.387,-1.896C255.827,-5.796 251.932,-6.522 248.378,-7.833C245.327,-9.166 241.99,-11.063 239.825,-7.74C236.526,-3.738 237.822,-13.054 233.95,-12.271L233.622,-12.44L233.293,-12.521L233.293,-12.521L233.293,-12.521ZM239.012,-11.834C237.736,-10.311 242.209,-10.331 239.012,-11.834ZM259.012,-9.771C255.839,-7.255 262.769,-8.894 259.012,-9.771ZM264.387,-8.427C262.823,-6.777 267.331,-7.792 264.387,-8.427ZM266.199,-7.677C265.5,-5.156 271.049,-5.125 266.199,-7.677ZM269.293,-5.459C267.549,-2.452 271.68,-3.499 269.293,-5.459ZM267.137,-4.927C267.12,-2.177 263.807,-2.211 261.418,-2.24C261.871,1.022 269.433,-1.117 268.48,-4.396C267.943,-4.398 267.638,-4.923 267.137,-4.927L267.137,-4.927ZM259.074,-2.771C257.885,-1.481 260.798,-2.219 259.074,-2.771ZM260.231,-1.959C259.129,-1.13 261.387,-1.472 260.231,-1.959ZM243.669,1.541C239.231,3.64 244.995,4.696 243.981,1.604L243.669,1.541ZM249.544,8.354C247.224,11.482 247.792,15.926 246.138,19.573C244.603,25.097 239.396,19.4 237.513,17.229C235.606,16.476 238.185,14.152 238.263,13.104C241.086,12.616 238.239,9.66 236.921,10.733C234.856,11.547 229.604,7.111 231.544,11.041C229.518,11.401 227.734,12.152 226.825,13.979C225.537,15.958 226.804,17.298 223.794,16.885C222.66,12.544 219.363,15.441 217.767,17.392C216.409,19.121 215.211,19.583 214.419,21.322C213.333,17.098 211.884,25.208 209.982,25.76C207.18,27.543 204.159,27.594 201.107,28.729C198.059,30.541 195.889,31.167 195.388,34.604C194.537,36.128 196.123,41.226 194.299,38.127C193.928,40.115 193.13,39.401 194.294,42.26C194.776,45.541 194.912,49.306 193.575,52.635C190.413,54.194 192.059,57.518 195.513,56.26C198.691,54.732 202.168,54.024 205.825,54.385C208.784,50.491 213.376,52.232 217.105,50.072C220.157,49.601 222.869,50.416 225.072,51.98C225.265,53.688 225.064,58.891 227.074,54.791C228.863,53.646 232.498,51.466 229.512,54.666C228.637,55.726 225.879,58.246 229.043,56.666C231.479,54.324 227.884,58.586 229.918,58.353C228.148,61.755 231.086,63.411 233.944,64.357C235.796,63.785 238,61.098 238.262,64.416C240.849,63.729 243.224,61.854 246.125,61.948C248.323,58.273 251.595,55.034 254.824,52.103C257.748,49.272 261.172,45.69 260.949,41.448C262.839,37.709 259.591,34.001 258.73,31.417C256.661,29.471 257.032,25.608 253.605,24.292C253.208,21.419 254.6,16.95 252.088,15.121C249.247,17.421 252.313,8.726 249.543,8.355L249.544,8.354ZM228.325,9.166C227.195,12.341 233.315,8.722 228.825,9.291L228.325,9.166ZM287.636,56.791C285.715,58.737 288.394,60.998 285.449,63.603C283.939,64.896 281.438,65.731 283.536,67.411C281.803,68.356 280.678,70.857 283.761,69.54C286.593,68.401 287.154,64.961 290.355,65.103C292.095,64.059 294,59.998 290.19,62.232C288.948,61.938 290.642,58.316 288.361,60.888C288.011,60.047 290.113,57.201 287.636,56.791L287.636,56.791ZM226.481,58.009C222.463,59.378 230.921,58.324 226.481,58.009ZM240.012,65.822C237.376,68.106 241.912,67.299 240.012,65.822ZM233.887,65.947C230.916,66.598 234.278,67.774 233.887,65.947ZM279.511,67.478C276.115,69.844 273.304,72.682 269.167,73.697C266.324,74.72 263.697,76.802 261.456,77.869C260.613,80.765 267.092,80.122 268.636,77.29C271.136,74.497 274.685,74.8 277.042,72.228C278.844,71.824 283.658,67.779 279.605,68.447C279.548,68.195 280.033,67.501 279.511,67.478L279.511,67.478ZM233.887,67.978C233.115,69.367 230.267,75.135 233.699,73.228C235.918,73.266 240.332,68.844 238.481,68.197C236.257,68.904 235.963,68.935 233.887,67.978L233.887,67.978ZM261.356,79.728C256.803,81.386 263.519,81.045 261.356,79.728Z" style="fill:rgb(137,217,157);fill-rule:nonzero;"/>
                        </g>
                        <path d="M100.715,-168.348C91.569,-166.541 108.485,-166.319 101.684,-168.285L100.715,-168.348ZM103.621,-167.067C94.947,-166.534 111.11,-162.708 108.215,-166.254C106.609,-166.782 105.254,-166.363 103.621,-167.067ZM111.246,-165.817C107.764,-161.223 121.052,-165.548 111.84,-165.192L111.777,-165.567L111.246,-165.817ZM114.996,-163.254C114.759,-159.278 108.71,-162.15 106.059,-160.41C101.442,-160.701 99.635,-158.942 102.872,-157.285C98.678,-158.116 92.496,-156.532 99.402,-155.004C104.496,-152.93 94.552,-155.449 93.934,-154.942C91.644,-153.896 94.67,-154.395 96.026,-152.773C93.171,-151.484 89.011,-157.477 90.121,-154.754C88.768,-153.115 93.196,-148.592 96.559,-149.817C101.335,-146.527 99.006,-147.223 95.153,-149.286C93.9,-148.675 94.382,-142.422 88.965,-145.723C88.102,-145.093 96.459,-146.988 91.121,-149.567C89.205,-152.408 86.204,-158.341 82.679,-155.203C79.229,-152.318 86.36,-150.312 85.996,-148.567C80.37,-151.47 84.971,-146.756 79.816,-144.677C81.139,-139.153 85.568,-130.77 83.89,-126.627C78.501,-123.948 87.392,-122.188 88.261,-123.67C91.14,-116.057 84.763,-117.183 80.213,-118.843C81.621,-115.387 75.015,-116.729 73.14,-113.628C71.442,-112.855 73.967,-104.089 77.265,-108.949C81.042,-110.555 82.641,-105.194 78.59,-105.473C78.511,-104.495 76.828,-103.431 80.34,-102.098C82.831,-100.038 81.962,-96.934 84.39,-99.403C89.403,-96.011 80.336,-98.354 84.309,-94.692C88.828,-90.376 83.993,-86.794 79.403,-90.661C74.277,-93.438 83.208,-96.339 76.59,-98.317C71.428,-99.719 69.096,-99.356 69.621,-94.224C70.782,-91.735 70.948,-88.472 73.996,-87.349C72.033,-82.853 76.504,-81.521 77.903,-78.349C78.641,-73.546 82.356,-77.659 83.902,-73.161C85.308,-69.6 90.411,-67.842 93.652,-69.849C95.494,-65.745 101.084,-65.349 105.652,-65.755C111.028,-67.585 112.415,-64.79 115.996,-61.443C121.125,-61.132 113.222,-59.795 119.371,-56.849C122.921,-57.721 122.138,-62.274 123.402,-56.318C122.431,-50.485 127.237,-46.41 128.183,-40.912C130.568,-38.702 131.489,-27.675 135.402,-34.162C137.89,-37.129 136.942,-42.283 137.214,-46.693C139.784,-47.599 141.217,-50.293 143.277,-52.287C146.559,-54.081 146.934,-59.428 150.402,-58.818C154.395,-60.026 155.314,-62.138 156.339,-56.13C159.528,-54.43 160.621,-53.501 161.183,-48.849C162.713,-43.287 166.607,-53.665 167.589,-47.161C168.509,-42.669 169.46,-39.049 169.87,-35.381C166.827,-31.348 172.192,-31.142 173.495,-27.568C173.325,-23.798 176.569,-17.081 180.558,-19.037C178.448,-22.782 179.112,-28.48 174.026,-29.881C170.852,-33.758 170.183,-38.156 172.745,-42.443C173.978,-40.714 177.523,-39.55 178.339,-37.13C181.832,-35.683 181.101,-29.961 184.401,-35.912C190.03,-37.224 188.935,-43.769 186.308,-47.568C183.512,-49.358 179.227,-52.133 181.37,-55.661C183.026,-61.044 186.939,-55.857 188.234,-56.682C189.234,-60.741 196.972,-58.817 199.276,-62.911C202.489,-65.908 202.471,-70.558 203.995,-74.442C199.947,-75.391 204.544,-79.478 199.151,-81.848C195.121,-84.863 195.96,-87.847 199.088,-90.379C195.061,-90.279 192.503,-89.665 189.664,-93.198C192.804,-92.115 192.057,-98.989 195.526,-96.504C193.917,-89.848 198.118,-96.62 201.901,-94.098C201.118,-89.354 206.865,-91.739 206.494,-87.004C206.821,-79.825 209.249,-85.37 212.338,-86.411C212.576,-90.822 203.449,-92.874 206.213,-95.629C207.64,-100.407 205.236,-100.264 208.182,-101.629C214.502,-98.236 214.529,-109.859 213.495,-113.285C210.998,-116.961 209.861,-122.024 204.745,-122.91C202.014,-121.595 200.498,-123.824 196.87,-124.191C198.425,-126.892 199.338,-128.783 199.654,-131.827C203.066,-132.701 207.638,-131.782 209.682,-132.535C211.16,-130.931 220.685,-131.585 215.182,-132.941C213.991,-137.353 219.062,-137.774 221.526,-134.941C224.363,-135.611 220.909,-140.88 224.963,-136.222C227.358,-132.924 221.168,-129.192 224.87,-126.066C227.849,-124.474 234.031,-115.235 235.931,-117.91C233.206,-121.714 238.35,-123.036 234.775,-125.254C236.62,-127.404 230.776,-128.74 229.181,-131.785C227.305,-134.764 232.376,-133.027 234.306,-134.629C238.61,-131.086 236.634,-136.637 240.088,-137.723C240.903,-138.949 247.8,-136.421 241.958,-139.949C234.001,-145.85 226.045,-152.215 215.869,-150.848C209.789,-151.645 221.416,-147.398 213.556,-149.442C211.199,-152.664 205.446,-149.24 200.901,-150.629C195.572,-154.71 188.437,-151.515 182.526,-153.942C179.368,-155.295 177.695,-154.511 172.432,-155.567C165.726,-156.312 175.03,-151.838 166.838,-153.723C161.789,-154.873 162.428,-151.361 157.276,-154.067C151.825,-155.099 155.974,-157.124 149.276,-156.91C145.079,-157.282 153.076,-154.479 145.37,-155.973C140.756,-157.133 135.65,-156.685 131.714,-157.723C129.772,-156.183 125.325,-156 131.089,-158.848C133.158,-163.095 122.105,-160.434 121.31,-162.367C118.675,-161.826 117.962,-163.99 114.995,-163.254L114.996,-163.254ZM108.402,-162.91C106.115,-162.137 109.516,-161.985 108.402,-162.91ZM159.09,-161.192C158.671,-157.59 165.576,-159.126 168.058,-159.129C168.504,-161.718 161.817,-159.885 159.902,-161.129L159.09,-161.192L159.09,-161.192ZM157.152,-160.473C157.105,-158.294 159.12,-160.348 157.152,-160.473ZM170.152,-159.942C171.843,-157.518 180.627,-159.146 172.496,-159.942C171.542,-159.968 171.091,-159.493 170.152,-159.942ZM166.246,-158.161C165.257,-156.989 168.898,-157.646 166.246,-158.161ZM168.308,-157.442C165.539,-155.329 177.404,-156.215 168.308,-157.442ZM212.402,-150.973C211.297,-149.628 214.516,-150.678 212.402,-150.973ZM241.682,-124.504C241.868,-122.247 244.419,-123.186 241.682,-124.504ZM244.432,-124.129C244.214,-122.789 246.307,-122.959 244.432,-124.129ZM101.374,-123.442C102.582,-122.898 102.583,-122.777 101.374,-123.442ZM208.533,-123.317C209.242,-118.947 215.443,-116.217 216.783,-111.379C217.244,-107.993 224.506,-105.923 220.501,-109.317C214.482,-114.091 222.827,-111.261 219.408,-113.535C215.262,-116.588 212.902,-120.666 208.533,-123.316L208.533,-123.317ZM98.904,-122.848L98.779,-122.629L98.904,-122.848ZM103.185,-121.786L103.435,-121.629L103.185,-121.786ZM95.623,-121.661C94.586,-121.265 94.548,-121.373 95.623,-121.661ZM105.904,-120.879C106.239,-120.913 106.4,-119.859 105.904,-120.879ZM184.372,-120.661C183.425,-120.501 183.416,-120.621 184.372,-120.661ZM107.498,-120.504L107.06,-120.286L107.498,-120.504ZM256.056,-120.161C254.422,-119.176 258.545,-119.739 256.056,-120.161ZM258.15,-119.536C257.163,-118.283 259.9,-118.842 258.15,-119.536ZM92.312,-119.192L92.249,-118.879L92.312,-119.192ZM147.561,-118.692L147.436,-118.629L147.561,-118.692ZM188.373,-118.536C189.474,-117.363 189.438,-117.158 188.373,-118.536ZM264.997,-118.379C264.046,-117.739 266.019,-117.816 264.997,-118.379ZM115.619,-117.661C116.553,-116.782 115.409,-117.287 115.619,-117.661ZM139.962,-116.879C140.039,-116.662 139.918,-116.604 139.962,-116.879ZM90.213,-116.817C90.832,-116.842 89.711,-116.546 90.213,-116.817ZM233.931,-116.598C232.52,-115.746 234.665,-115.847 233.931,-116.598ZM190.62,-116.442L191.557,-115.786L190.62,-116.442ZM153.182,-116.411L153.651,-115.911L153.182,-116.411ZM138.432,-116.38L137.432,-115.911L138.432,-116.38ZM234.837,-116.098C232.122,-113.536 237.037,-114.762 234.837,-116.098ZM124.458,-116.005C122.813,-115.447 122.795,-115.564 124.458,-116.005ZM121.458,-115.848C122.057,-115.768 120.771,-115.775 121.458,-115.848ZM191.864,-115.505C192.094,-115.538 192.214,-114.817 191.864,-115.505ZM159.426,-115.473C160.814,-115.262 160.55,-115.182 159.426,-115.473ZM154.52,-115.442C155.128,-115.233 155.096,-115.042 154.52,-115.442ZM147.645,-115.349C147.788,-114.856 146.44,-113.939 147.645,-115.349ZM192.113,-115.192L192.52,-114.505L192.113,-115.192ZM118.176,-115.099L119.114,-114.63L118.176,-115.099ZM82.208,-115.005C83.346,-114.835 81.572,-114.952 82.208,-115.005ZM156.613,-114.974C156.137,-114.44 154.266,-115.336 156.613,-114.974ZM179.363,-114.817L179.019,-114.692L179.363,-114.817ZM82.833,-114.755L83.208,-114.567L82.833,-114.755ZM161.301,-114.755L161.519,-114.63L161.301,-114.755ZM91.802,-114.724L90.958,-114.63L91.802,-114.724ZM162.457,-114.724L162.738,-114.63L162.457,-114.724ZM162.457,-114.724L161.832,-114.599L162.457,-114.724ZM132.301,-114.63C132.409,-114.503 132.196,-114.013 132.301,-114.63ZM90.021,-114.568L90.489,-114.536L90.021,-114.568ZM162.864,-114.443C163.525,-113.608 163.436,-113.518 162.864,-114.443ZM176.676,-114.411C178.932,-113.645 178.76,-113.557 176.676,-114.411ZM169.894,-114.255C167.617,-113.384 167.428,-113.571 169.894,-114.255ZM234.863,-113.974C234.052,-113.049 235.906,-113.734 234.863,-113.974ZM134.114,-113.443C134.269,-113.127 133.761,-113.517 134.114,-113.443ZM199.425,-111.818C200.561,-110.366 200.359,-110.486 199.425,-111.818ZM180.269,-110.661C180.446,-110.698 179.979,-110.255 180.269,-110.661ZM205.738,-110.661C206.101,-110.467 205.603,-110.437 205.738,-110.661ZM178.05,-110.474L177.863,-110.193L178.05,-110.474ZM206.238,-110.318C206.633,-109.843 206.07,-109.203 206.238,-110.318ZM94.019,-108.943C93.695,-106.675 96.273,-103.494 92.926,-102.38C89.916,-101.994 88.562,-106.85 91.556,-107.67C91.938,-110.688 92.81,-107.027 94.019,-108.943L94.019,-108.943ZM206.488,-108.505C207.547,-105.48 207.441,-105.436 206.488,-108.505ZM233.019,-107.38C230.58,-106.045 233.41,-105.533 233.019,-107.38ZM140.114,-107.349L140.364,-107.005L140.114,-107.349ZM231.082,-105.912C227.622,-105.034 230.782,-101.784 231.082,-105.912ZM221.363,-105.849C222.116,-103.751 221.583,-100.608 221.894,-98.724C226.488,-95.795 220.343,-102.838 225.988,-99.287C229.458,-98.563 230.658,-105.708 224.863,-103.724C223.514,-104.13 222.654,-105.33 221.363,-105.849L221.363,-105.849ZM175.114,-105.13L175.364,-105.005L175.114,-105.13ZM124.364,-105.068L124.395,-104.849L124.364,-105.068ZM205.301,-103.443C205.932,-102.554 206.158,-102.233 205.301,-103.443ZM88.423,-100.412L88.204,-99.88L88.423,-100.412ZM206.011,-100.068C206.105,-99.883 205.685,-99.917 206.011,-100.068ZM94.453,-99.88L94.609,-99.63L94.453,-99.88ZM88.171,-99.568L88.328,-98.724L88.171,-99.568ZM111.765,-99.537C111.948,-99.472 111.756,-98.952 111.765,-99.537ZM124.546,-98.349C124.816,-98.386 123.997,-97.612 124.546,-98.349ZM203.576,-97.849L203.17,-97.131L203.576,-97.849ZM225.42,-97.755C220.822,-96.981 227.31,-92.767 224.67,-89.849C221.481,-90.219 223.375,-84.879 217.857,-86.224C212.147,-81.701 219.63,-83.766 222.677,-84.562C224.986,-79.178 223.855,-87.468 227.545,-84.474C231.597,-84.748 229.082,-88.463 229.17,-92.068C229,-95.219 225.737,-95.764 225.42,-97.756L225.42,-97.755ZM113.981,-97.693L114.044,-97.537L113.981,-97.693ZM96.2,-97.443L96.232,-97.349L96.2,-97.443ZM120.763,-97.037L120.482,-96.881L120.763,-97.037ZM202.981,-96.974L202.856,-96.881L202.981,-96.974ZM111.763,-96.381C112.262,-96.203 111.405,-95.846 111.763,-96.381ZM118.263,-95.068C118.635,-95.101 117.292,-94.085 118.263,-95.068ZM107.044,-90.131C107.25,-90.185 107.176,-89.681 107.044,-90.131ZM121.232,-89.787C121.575,-89.822 121.638,-88.684 121.232,-89.787ZM109.42,-89.693L109.576,-89.537L109.42,-89.693ZM122.67,-88.787L122.858,-88.631L122.67,-88.787ZM99.639,-86.412C99.782,-86.14 99.438,-86.382 99.639,-86.412ZM126.483,-86.287C126.313,-85.243 125.965,-86.304 126.483,-86.287ZM220.451,-83.787C216.768,-82.027 219.774,-79.557 221.888,-82.162C222.323,-83.309 221.481,-83.792 220.451,-83.787ZM99.642,-83.349C99.751,-83.006 99.535,-81.778 99.642,-83.349ZM215.671,-82.881C212.381,-80.132 217.581,-82.022 217.108,-77.381C219.723,-77.3 218.426,-83.246 215.671,-82.881ZM208.952,-82.443C206.913,-81.172 211.082,-82.206 208.952,-82.443ZM99.394,-81.818L99.362,-81.506L99.394,-81.818ZM218.112,-76.381C216.164,-75.349 219.416,-75.731 218.112,-76.381ZM122.801,-76.256L122.864,-75.975L122.801,-76.256ZM133.645,-72.756C134.112,-72.415 133.587,-72.599 133.645,-72.756ZM217.269,-72.193C214.93,-70.975 218.964,-70.929 217.269,-72.193ZM215.957,-68.85C213.7,-66.881 217.453,-68.1 215.957,-68.85ZM150.051,-67.35L150.145,-67.225L150.051,-67.35ZM149.989,-65.943L149.958,-65.818L149.989,-65.943ZM205.3,-65.725C201.083,-62.098 206.98,-56.913 205.956,-63.381C205.946,-64.121 206.427,-65.56 205.3,-65.725ZM172.489,-59.944C172.367,-58.641 172.367,-58.641 172.489,-59.944ZM171.082,-57.725C171.438,-57.508 170.277,-57.121 171.082,-57.725ZM170.614,-56.506C170.66,-55.628 170.54,-55.647 170.614,-56.506ZM187.988,-55.35C180.422,-52.548 191.541,-50.193 188.52,-55.319L187.988,-55.35L187.988,-55.35ZM171.677,-53.444C172.502,-53.002 171.414,-52.967 171.677,-53.444ZM206.77,-52.35C206.423,-48.296 203.796,-46.583 207.958,-44.006C208.964,-41.574 212.815,-43.39 212.676,-40.631C212.961,-35.846 215.654,-44.37 211.216,-43.854C206.058,-44.151 212.698,-50.471 208.388,-52.292C207.84,-52.06 207.321,-52.438 206.77,-52.35L206.77,-52.35ZM177.896,-51.537L177.927,-51.381L177.896,-51.537ZM177.958,-51.194C178.251,-50.631 178.102,-50.658 177.958,-51.194ZM172.271,-51.037C172.526,-50.831 172.061,-50.824 172.271,-51.037ZM179.427,-48.381C180.648,-47.775 179.105,-47.737 179.427,-48.381ZM169.646,-47.412C169.826,-46.656 169.713,-46.613 169.646,-47.412ZM159.396,-42.506C156.833,-38.425 161.165,-36.439 159.552,-42.444L159.396,-42.506L159.396,-42.506L159.396,-42.506ZM170.365,-42.35L170.333,-42.038L170.365,-42.35ZM207.645,-42.35C208.108,-37.067 212.001,-41.877 207.645,-42.35ZM215.52,-40.725C214.71,-38.671 208.835,-32.902 213.426,-34.1C214.469,-39.154 217.92,-33.708 216.051,-40.444L215.52,-40.725L215.52,-40.725L215.52,-40.725ZM210.489,-40.288C209.035,-33.809 214.607,-37.033 210.489,-40.288ZM206.927,-40.1C205.451,-38.609 209.048,-39.213 206.927,-40.1ZM205.802,-37.756C203.53,-34.62 201.558,-29.482 205.395,-35.194C206.621,-35.187 206.904,-37.242 205.802,-37.756ZM169.802,-37.413L169.708,-37.163L169.802,-37.413ZM158.677,-37.194C158.906,-36.507 159.814,-37.173 158.677,-37.194ZM214.988,-35.6C212.282,-34.1 217.149,-34.058 214.988,-35.6ZM137.645,-35.225C137.184,-33.062 136.327,-24.638 140.77,-28.913C140.528,-31.16 139.13,-33.804 137.645,-35.225ZM216.956,-34.819C216.827,-30.891 209.794,-33.725 211.581,-29.131C214.392,-32.246 216.042,-30.656 216.3,-27.506C219.385,-25.98 216.26,-31.232 219.216,-28.589C219.435,-30.801 218.769,-33.551 216.956,-34.819L216.956,-34.819ZM233.268,-30.819C231.556,-29.133 234.498,-29.897 233.268,-30.819ZM161.644,-30.038C160.489,-28.761 163.229,-28.707 161.644,-30.038ZM173.175,-29.85L173.206,-29.538L173.175,-29.85ZM202.831,-29.381C200.545,-28.14 199.851,-25.109 197.331,-24.413C194.934,-21.959 192.913,-17.87 189.737,-19.506C187.105,-16.403 190.721,-13.592 191.143,-10.538C192.106,-7.819 196.835,-10.445 198.612,-7.788C201.579,-7.009 203.827,-13.577 204.049,-16.538C210.274,-16.445 200.503,-21.971 205.393,-24.007C207.735,-27.231 205.074,-26.439 202.831,-29.381L202.831,-29.381ZM211.768,-28.569C209.536,-28.268 212.648,-27.573 211.768,-28.569ZM210.143,-27.725C207.996,-27.343 211.171,-26.707 210.143,-27.725ZM164.956,-27.069C165.14,-22.787 170.644,-20.869 171.487,-16.6C174.048,-14.035 174.856,-8.422 178.674,-6.381C181.622,-0.415 185.372,-6.926 183.049,-10.194C179.74,-11.847 180.215,-15.701 178.143,-17.287C176.291,-19.721 172.884,-20.961 170.268,-23.881C169.102,-26.814 167.217,-25.622 164.955,-27.068L164.956,-27.069ZM230.861,-25.038C229.628,-23.78 233.011,-24.116 230.861,-25.038ZM219.955,-24.506C218.685,-23.691 220.877,-23.04 219.955,-24.506ZM165.831,-21.444C163.628,-20.113 168.805,-20.478 165.831,-21.444ZM223.049,-20.725C221.769,-19.531 224.241,-18.329 223.049,-20.725ZM222.143,-19.694C219.608,-17.552 222.173,-10.957 222.361,-15.132C224.392,-16.435 224.056,-18.368 222.143,-19.694ZM217.205,-19.069C215.341,-14.943 209.92,-20.154 207.701,-16.236C205.693,-11.476 206.919,-8.958 206.982,-5.065C210.024,-0.591 208.542,-14.259 209.887,-8.618C210.415,-5.253 213.745,-5.478 212.799,-9.194C207.998,-11.698 218.385,-15.608 211.804,-13.816C207.38,-11.609 208.958,-18.714 214.24,-15.954C215.966,-15.316 218.564,-17.891 217.205,-19.069L217.205,-19.069ZM125.55,-17.163C124.221,-15.55 126.965,-15.945 125.55,-17.163ZM181.362,-15.507C179.684,-14.159 183.302,-15.08 181.362,-15.507ZM170.268,-15.101C168.876,-14.368 171.457,-14.062 170.268,-15.101ZM226.798,-13.976C225.905,-13.061 227.537,-13.699 226.798,-13.976ZM170.705,-13.632C168.938,-12.268 173.628,-11.343 170.705,-13.632ZM213.892,-13.132C210.803,-11.594 216.996,-12.48 213.892,-13.132ZM221.705,-12.819C218.948,-10.875 225.322,-12.115 221.705,-12.819ZM183.205,-12.569C179.31,-11.426 187.642,-7.171 183.986,-11.226C184.177,-11.629 183.817,-12.688 183.205,-12.569ZM215.955,-12.507C214.542,-9.967 220.951,-12.285 215.955,-12.507ZM226.236,-12.288C223.101,-10.881 229.367,-10.827 226.236,-12.288ZM172.674,-11.257C171.222,-9.788 174.402,-11.111 172.674,-11.257ZM218.83,-11.069C217.691,-10.484 219.94,-10.215 218.83,-11.069ZM186.83,-10.694C183.743,-8.134 189.694,-8.804 186.83,-10.694ZM223.236,-9.944C220.189,-6.478 232.421,-8.249 224.642,-9.663L223.985,-9.819L223.236,-9.944L223.236,-9.944L223.236,-9.944ZM219.454,-9.444C217.117,-7.098 223.901,-7.922 219.454,-9.444ZM213.611,-6.632C208.62,-3.226 215.605,-3.253 213.611,-6.632ZM230.954,-4.757C229.434,-3.386 231.622,-3.733 230.954,-4.757ZM233.736,-4.507C229.421,-0.768 235.27,-0.718 233.736,-4.507ZM208.798,-3.757C207.089,-2.634 210.059,-2.586 208.798,-3.757ZM183.486,-3.726C179.441,-0.721 185.667,-0.217 188.642,0.087C190.806,2.02 201.852,1.621 195.705,-0.257C193.765,-4.186 190.543,-0.916 187.569,-2.692C187.079,-4.141 184.603,-3.197 183.486,-3.726L183.486,-3.726ZM195.736,-2.226C194.453,0.979 200.345,-2.938 195.736,-2.226ZM228.048,-1.32C224.182,1.679 229.507,1.011 228.235,-1.32L228.048,-1.32ZM219.423,-0.476C215.052,0.241 219.51,1.556 219.423,-0.476ZM203.923,0.493C195.547,4.405 210.897,2.164 203.923,0.493ZM199.423,0.68C195.227,1.098 201.563,2.85 199.423,0.68ZM201.142,0.68C197.659,3.18 202.688,3.372 201.142,0.68ZM208.611,0.774C201.892,4.905 217.517,0.52 210.305,1.429C209.491,1.816 209.544,0.345 208.611,0.774ZM213.798,0.805C211.475,1.433 215.463,2.493 213.798,0.805ZM219.142,1.024C214.232,0.608 210.626,8.622 216.829,3.462C217.307,2.691 222.335,1.821 219.142,1.024ZM205.892,2.899C206.212,6.363 210.634,3.434 205.892,2.899ZM212.611,5.68C209.307,6.684 214.217,7.123 212.611,5.68Z" style="fill:rgb(59,140,110);fill-rule:nonzero;"/>
                    </g>
                    <g transform="matrix(1,0,0,1,315.176,46.3904)">
                        <g transform="matrix(1,0,0,1,37,-3)">
                            <path d="M19.286,40.933C19.165,40.984 19.408,40.984 19.286,40.933ZM64.191,41.183L64.191,41.308L64.191,41.183ZM68.973,42.152L68.91,42.183L68.973,42.152ZM37.817,44.683C34.356,44.764 40.87,46.894 37.973,48.496C35.642,49.564 32.406,49.208 30.381,48.135C28.414,47.133 25.182,46.928 23.013,48.232C22.612,50.054 17.862,47.763 19.786,49.933C18.484,51.115 16.335,49.845 14.942,50.871C13.626,52.658 18.121,53.021 15.317,54.308C12.642,53.333 15.263,55.684 16.536,55.496C17.313,56.753 17.045,58.308 19.499,57.952C20.67,60.182 22.5,58.006 23.942,57.746C26.457,60.217 28.979,57.737 31.755,57.746C30.54,59.461 31.847,61.764 31.114,63.62C30.655,65.423 30.677,69.578 27.908,68.993C25.428,68.166 26.063,69.493 26.942,71.052C28.03,72.094 28.671,76.875 30.51,75.171C30.871,73.952 30.836,70.886 31.148,73.492C29.886,76.253 33.768,76.434 34.508,78.887C35.527,81.569 37.045,83.051 38.973,85.058C38.779,88.113 40.159,90.596 42.723,91.87C42.997,94.182 44.902,95.94 46.223,97.651C47.589,99.057 44.935,100.096 46.754,101.682C47.161,103.776 47.373,107.312 50.473,105.245C52.914,103.906 55.566,103.989 57.473,102.432C59.299,101.08 63.306,101.485 62.748,98.567C64.188,97.302 66.769,97.528 68.254,96.901C66.748,94.969 70.68,95.781 70.317,93.745C72.145,91.971 71.95,89.978 73.967,88.645C76.436,86.53 73.21,86.429 73.286,84.652C71.157,84.326 68.19,83.211 68.442,80.558C67.44,80.041 68.725,77.502 67.525,79.431C66.211,80.99 65.01,84.477 62.317,82.901C59.706,84.329 60.118,81.005 59.929,79.538C58.252,78.292 59.725,83.614 58.314,80.949C57.259,79.254 57.227,77.506 55.501,76.159C54.738,74.832 53.352,73.118 52.97,72.183C55.166,71.181 51.417,69.344 52.019,67.388C50.593,65.915 48.778,65.222 47.858,63.23C47.961,61.558 49.394,59.28 46.974,58.917C46.349,57.915 45.146,56.514 44.717,55.099C45.493,54.936 42.758,51.834 44.963,53.371C46.632,54.224 47.902,53.182 49.431,52.372C50.727,52.235 50.218,55.367 52.161,54.964C51.573,53.278 52.553,50.716 54.037,51.008C52.013,49.88 50.331,47.607 47.686,48.208C44.827,47.73 42.977,45.213 40.13,45.683C39.64,44.867 38.719,44.606 37.817,44.683L37.817,44.683ZM36.848,45.277C36.03,44.765 36.697,45.376 36.848,45.277ZM50.848,48.465C50.82,48.623 51.088,48.426 50.848,48.465ZM28.286,60.058C27.276,60.377 24.295,61.749 27.014,61.935C27.639,61.957 29.789,60.399 28.286,60.058ZM51.536,71.277L51.599,71.465L51.536,71.277ZM50.724,72.277C50.677,72.733 50.713,72.921 50.724,72.277ZM67.223,77.246C64.889,78.182 68.646,78.674 67.223,77.246ZM57.817,78.402C56.942,79.681 59.194,78.998 57.817,78.402ZM33.318,85.058C33.258,85.274 33.497,85.067 33.318,85.058ZM65.411,105.808C62.499,106.596 66.937,107.123 66.396,105.873L65.88,105.871L65.411,105.808L65.411,105.808Z" style="fill:rgb(59,140,110);fill-rule:nonzero;"/>
                        </g>
                        <g transform="matrix(1,0,0,1,-1.84259,3.78005)">
                            <path d="M0.076,-20.743C-2.026,-19.343 -10.418,-22.681 -8.569,-19.052C-9.75,-19.109 -11.72,-20.857 -11.549,-18.837C-13.417,-21.167 -14.042,-17.655 -15.588,-20.195C-19.815,-20.079 -14.192,-16.909 -12.987,-18.368C-9.808,-18.265 -15.527,-16.895 -12.459,-16.682C-13.236,-15.347 -7.243,-14.553 -8.049,-18.024C-6.667,-17.999 -3.705,-14.087 -4.237,-17.743C-4.987,-18.819 -9.473,-19.743 -6.048,-19.541C-4.782,-19.034 0.648,-18.37 0.075,-20.743L0.076,-20.743ZM48.419,-16.212C46.202,-14.557 43.135,-15.282 40.669,-14.524C38.231,-14.142 36.962,-12.39 35.763,-10.68C37.497,-10.766 34.399,-9.487 34.888,-8.462C32.466,-7.267 37.692,-7.217 38.009,-6.231C40.467,-5.858 44.304,-5.586 40.138,-7.243C37.244,-9.235 39.216,-10.267 40.825,-12.149C42.887,-13.953 49.86,-13.543 49.544,-15.899C49.119,-15.825 48.847,-16.265 48.419,-16.211L48.419,-16.212ZM5.357,-6.587C4.138,-5.245 3.687,-7.083 2.295,-5.243C3.653,-7.863 -1.2,-4.981 -2.424,-5.087C-5.163,-5.291 -7.394,-2.634 -9.674,-1.649C-11.355,-0.014 -12.712,1.71 -13.455,3.382C-14.734,4.758 -17.429,5.343 -17.947,6.637C-19.914,7.267 -24.864,9.518 -21.667,11.686C-23.074,13.973 -20.956,16.748 -18.024,15.741C-15.028,14.344 -14.15,11.942 -12.298,15.632C-10.869,17.18 -11.129,22.616 -8.36,20.441C-6.675,19.472 -4.952,17.845 -5.236,14.757C-2.505,14.56 -2.137,11.262 -5.187,11.048C-5.917,8.437 -3.517,6.82 -1.267,5.757C-0.2,3.864 0.469,1.137 3.857,2.507C5.708,3.768 1.79,5.511 0.295,6.413C-0.781,8.137 0.14,11.993 2.764,11.944C5.197,13.623 9.17,10.196 11.607,12.007C15.561,12.48 9.573,13.767 8.295,13.069C5.698,12.462 2.269,13.892 5.639,16.132C6.008,20.003 0.726,13.788 1.014,18.882C2.602,20.763 -1.089,23.901 -2.142,22.444C-5.035,21.353 -7.794,25.1 -10.75,22.715C-12.965,24.967 -14.105,20.984 -16.048,22.163C-16.902,21.98 -15.901,25.677 -18.361,23.85C-19.966,24.717 -24.225,25.059 -23.301,28.193C-24.655,28.782 -27.279,29.155 -27.923,31.381C-28.467,33.629 -31.156,31.12 -32.423,32.131C-30.495,35.269 -35.991,32.527 -36.715,34.257C-36.03,36.327 -32.539,35.648 -31.892,38.194C-29.073,42.252 -33.751,45.907 -37.611,43.913C-39.699,43.353 -44.642,43.023 -43.798,45.788C-42.928,48.335 -44.138,50.486 -44.892,53.069C-43.42,53.769 -44.529,58.331 -41.454,56.1C-39.793,57.359 -39.524,59.626 -36.954,57.444C-33.539,58.241 -31.46,55.966 -29.861,54.131C-27.059,53.463 -30.922,49.107 -26.574,48.384C-22.982,48.103 -25.574,42.124 -21.111,44.663C-17.612,45.438 -14.582,39.407 -12.423,45.194C-11,47.763 -7.8,48.37 -5.642,49.756C-3.832,51.078 -3.196,52.967 -3.779,54.995C-1.886,54.095 -1.025,52.187 -2.674,50.787C-2.203,48.436 1.345,52.952 -0.642,49.694C-3.561,48.091 -4.49,47.072 -7.049,45.537C-8.205,43.685 -12.251,39.984 -8.142,39.663C-7.725,42.626 -5.656,40.491 -5.102,43.503C-1.254,45.007 -1.421,45.813 1.701,47.412C0.895,50.539 2.688,52.625 5.076,54.069C6.881,53.413 11.817,57.251 8.639,53.819C11.913,53.84 6.855,52.728 7.545,51.444C5.432,47.581 9.363,52.607 9.357,49.287C12.185,49.566 14.59,49.768 17.263,48.694C13.749,47.482 15.361,44.407 15.73,41.769C17.629,41.555 17.763,36.89 20.076,38.194C22.133,39.386 24.423,38.069 21.482,40.288C23.573,41.175 24.123,42.774 25.966,40.94C31.588,41.113 21.79,39.654 25.451,38.319C27.47,37.503 31.387,35.612 29.513,39.881C27.296,41.45 33.16,42.555 34.013,44.6C37.367,43.316 38.977,46.979 42.232,46.819C43.898,47.732 51.884,49.619 47.138,45.944C45.522,43.881 42.417,40.682 46.544,39.257C47.481,37.464 51.174,37.724 51.359,36.945C51.977,34.67 46.875,31.033 49.261,30.062C51.27,30.426 53.339,29.321 52.161,27.769C55.133,25.474 58.393,31.665 60.825,28.319C61.323,25.727 60.957,19.442 57.664,23.621C53.28,23.558 54.064,19.391 57.574,18.892C55.192,14.722 55.021,9.761 53.532,5.053C50.95,1.99 53.324,0.248 55.519,-1.436C55.341,-4.408 47.187,-5.537 47.658,-3.719C48.723,-0.603 45.494,-4.3 43.982,-2.525C41.71,-2.606 40.283,-1.365 38.926,-3.115C35.385,-2.955 32.491,1.419 29.544,-0.556C34.412,-1.67 24.227,-4.23 27.669,-1.868C27.068,-0.363 31.054,2.304 27.201,1.288C23.682,-0.319 20.571,-3.151 15.982,-3.618C13.051,-3.969 11.192,-4.72 8.076,-4.681C8.578,-5.515 11.27,-5.429 7.794,-6.157C6.232,-5.299 6.489,-6.431 5.357,-6.587L5.357,-6.587ZM-2.955,-3.493C-2.886,-3.245 -3.502,-3.321 -2.955,-3.493ZM0.983,-1.087C1.427,0.132 1.298,0.113 0.983,-1.087ZM-7.955,-0.806C-7.732,-0.842 -8.375,-0.234 -7.955,-0.806ZM-50.892,0.882C-51.99,2.369 -54.99,1.19 -55.673,1.976C-57.277,1.906 -57.325,3.555 -58.548,1.351C-61.552,1.791 -61.93,3.387 -58.752,2.831C-59.569,3.921 -62.739,3.257 -59.705,4.788C-58.034,7.401 -52.294,5.366 -49.047,5.565C-46.793,2.554 -47.924,2.125 -50.893,0.882L-50.892,0.882ZM-12.362,5.694C-12.035,5.662 -13.202,6.511 -12.362,5.694ZM13.419,7.694C13.101,8.543 12.936,8.633 13.419,7.694ZM2.7,13.694C0.58,15.228 5.065,14.566 2.7,13.694ZM3.825,14.694C-0.57,14.404 2.804,18.126 3.825,14.694ZM-36.549,14.851C-37.697,16.783 -38.286,16.463 -38.372,14.933C-40.978,16.19 -38.509,17.523 -37.487,18.663C-37.284,20.292 -35.785,20.726 -36.617,22.329C-34.309,19.643 -32.394,26.323 -35.862,24.444C-36.138,27.055 -38.528,28.584 -34.331,28.35C-35.602,28.732 -40.119,32.295 -35.77,30.667C-33.474,29.463 -29.162,29.869 -27.366,28.491C-28.338,27.887 -25.294,25.655 -28.152,24.987C-29.351,23.177 -30.975,21.144 -32.763,19.817C-36.458,20.504 -29.036,15.684 -33.456,16.319C-36.414,17.31 -32.134,13.882 -35.862,14.975L-36.55,14.85L-36.55,14.85L-36.549,14.851ZM9.294,15.757C9.494,15.716 9.045,16.335 9.294,15.757ZM8.856,19.944C9.21,21.212 9.067,21.182 8.856,19.944ZM8.169,20.975C8.616,21.179 7.273,20.928 8.169,20.975ZM-38.674,21.007C-40.946,20.877 -42.579,21.625 -42.268,23.163C-45.021,21.506 -43.419,24.03 -44.076,24.752C-40.885,24.922 -48.124,27.84 -43.737,28.288C-40.327,27.787 -37.708,26.711 -37.956,22.975C-36.613,22.69 -38.161,21.258 -38.675,21.007L-38.674,21.007ZM1.481,22.788C1.881,22.753 1.997,24.058 1.481,22.788ZM5.418,24.069C5.811,24.521 5.273,24.376 5.418,24.069ZM-20.206,30.444C-20.374,30.666 -21.114,30.392 -20.206,30.444ZM-1.456,31.85C-0.484,31.926 0.072,32.324 -1.456,31.85ZM4.981,33.1C5.197,33.041 4.99,33.28 4.981,33.1ZM15.043,34.944C15.203,34.88 15.544,35.252 15.043,34.944ZM-13.988,36.319C-12.774,36.363 -14.08,37.655 -13.988,36.319ZM-8.8,37.694C-8.096,37.941 -8.787,38.594 -8.8,37.694ZM0.137,39.131C0.342,39.149 0.109,40.625 0.137,39.131ZM-4.613,40.662C-4.482,40.627 -4.775,40.905 -4.613,40.662ZM1.418,41.506C1.597,41.896 1.48,41.918 1.418,41.506ZM1.481,42.912C1.689,42.873 1.609,43.595 1.481,42.912ZM1.918,45.069C2.028,46.113 1.885,46.177 1.918,45.069ZM12.199,47.881C12.461,48.357 11.373,48.322 12.199,47.881ZM4.262,49.412C4.42,49.387 4.236,49.571 4.262,49.412ZM5.949,54.537C3.268,54.893 7.415,58.424 7.355,57.506C9.142,59.408 8.206,53.114 5.949,54.537ZM10.355,54.537C10.389,55.793 12.382,55.106 10.355,54.537ZM11.012,56.725C8.557,57.352 11.808,57.571 11.012,56.725ZM11.98,57.818C12.652,58.56 12.093,58.03 11.98,57.818ZM9.324,59.256C8.022,61.47 16.402,61.504 11.793,59.881C10.754,60.242 10.243,59.394 9.324,59.256Z" style="fill:rgb(30,89,89);fill-rule:nonzero;"/>
                        </g>
                        <path d="M-11.703,56.548C-14.38,58.538 -17.46,57.283 -20.328,57.642C-24.547,57.713 -27.689,59.837 -31.484,61.017C-35.479,61.308 -37.548,58.068 -38.984,63.486C-43.437,64.526 -44.775,67.376 -43.828,71.517C-47.101,75.233 -52.178,77.129 -53.171,82.204C-55.693,85.293 -57.827,88.651 -55.453,92.173C-55.376,94.145 -54.635,98.408 -56.89,100.642C-57.995,103.572 -55.777,107.207 -53.921,109.204C-52.168,111.314 -50.93,112.871 -49.89,115.329C-48.092,117.816 -45.093,119.748 -43.015,121.798C-39.202,122.525 -34.724,119.216 -31.015,121.266C-27.964,120.248 -24.754,118.176 -22.341,118.548C-17.878,116.771 -18.753,124.884 -14.734,121.923C-7.127,122.285 -13.276,131.243 -11.234,135.11C-9.915,137.977 -6.221,140.928 -6.641,143.485C-5.036,147.118 -4.165,151.137 -4.453,154.86C-7.172,158.116 -8.047,163.58 -7.391,167.891C-4.636,171.904 -2.566,176.688 -2.766,181.828C-2.085,187.072 1.522,190.85 2.64,195.765C0.231,197.25 3.769,201.941 6.374,199.897C10.083,198.707 14.176,199.586 17.703,197.922C21.891,194.443 25.817,190.401 27.671,185.484C27.335,180.244 35.612,180.466 32.671,174.297C30.033,170.186 37.157,167.482 39.976,165.101C43.344,162.032 44.412,155.654 42.359,152.016C41.381,149.282 38.641,142.959 42.202,142.141C40.273,139.258 43.952,136.007 45.921,133.36C50.091,128.096 56.622,124.71 58.39,117.954C59.688,115.78 64.174,107.227 59.515,108.329C55.596,108.579 50.124,112.663 47.609,108.61C48.196,107.367 46.211,103.562 43.296,101.923C38.964,100.699 41.235,94.799 37.578,93.798C37.403,89.913 34.562,85.833 33.546,84.548C32.918,80.595 29.47,77.004 27.609,73.173C26.963,69.38 26.689,67.001 22.723,69.523C18.792,70.484 15.428,67.812 11.765,67.556C9.723,63.502 5.306,67.061 5.797,70.579C1.286,70.976 -1.233,66.938 -4.766,65.642C-7.465,65.411 -12.636,63.982 -8.797,61.33C-10.318,57.882 -7.882,57.881 -11.703,56.548ZM31.078,65.892C30.915,66.135 31.208,65.856 31.078,65.892ZM-11.453,71.111C-11.141,71.069 -11.663,72.197 -11.453,71.111ZM-50.421,72.704C-52.075,73.66 -49.213,73.477 -50.421,72.704ZM-51.109,73.704C-53.622,76.376 -49.058,75.264 -51.109,73.704ZM-57.515,73.798C-59.37,74.187 -56.716,74.476 -57.515,73.798ZM-58.046,74.173C-58.252,74.119 -58.178,74.622 -58.046,74.173ZM-54.953,74.048C-58.299,74.413 -53.89,76.601 -54.953,74.048ZM-53.953,74.892C-55.282,76.412 -51.959,75.854 -53.953,74.892ZM-10.641,78.548C-10.435,79.643 -10.474,80.71 -10.641,78.548ZM-35.734,81.611C-35.302,81.491 -35.715,81.97 -35.734,81.611ZM29.703,87.735C30.206,88.469 30.1,88.502 29.703,87.735ZM13.922,92.86C13.881,94.764 13.992,97.768 14.015,100.11C14.007,97.698 13.818,95.256 13.922,92.86ZM38.234,96.61C37.324,96.919 37.334,96.804 38.234,96.61ZM64.39,98.142C64.097,98.121 64.582,98.364 64.39,98.142ZM-69.359,98.36C-69.725,99.498 -67.756,98.691 -69.359,98.36ZM-68.327,100.61C-70.567,101.931 -66.835,102.072 -68.327,100.61ZM-4.078,103.892C-3.961,104.219 -4.725,104.077 -4.078,103.892ZM-23.703,106.86C-23.539,106.819 -23.612,107.213 -23.703,106.86ZM11.515,107.048C11.798,107.937 11.685,107.952 11.515,107.048ZM-26.109,109.079C-25.955,109.02 -25.768,109.458 -26.109,109.079ZM12.297,109.235C12.466,109.456 11.99,109.434 12.297,109.235ZM-41.671,110.548C-41.586,110.663 -41.879,110.613 -41.671,110.548ZM13.297,110.985C13.583,111.624 13.475,111.65 13.297,110.985ZM13.453,111.735C13.394,112.807 13.28,112.849 13.453,111.735ZM47.671,112.579L47.89,113.11L47.671,112.579ZM13.297,113.11C13.87,113.473 13.031,113.499 13.297,113.11ZM-2.547,113.298C-1.944,113.52 -2.583,113.491 -2.547,113.298ZM-45.984,114.266C-45.691,114.148 -46.165,114.768 -45.984,114.266ZM56.077,115.548L55.952,115.86L56.077,115.548ZM-0.609,115.954C-0.169,115.964 -0.694,116.135 -0.609,115.954ZM19.984,120.266C20.043,120.902 19.919,121.125 19.984,120.266ZM17.109,120.298C17.645,120.336 16.63,120.442 17.109,120.298ZM15.172,121.141C16.605,121.266 13.989,121.261 15.172,121.141ZM20.39,121.454C21.126,121.431 20.95,123.112 20.39,121.454ZM10.984,122.672C12.245,121.715 12.224,124.35 10.984,122.672ZM31.515,122.922C31.611,122.906 31.499,123.018 31.515,122.922ZM-12.578,123.36C-15.221,124.688 -10.905,125.052 -12.578,123.36ZM29.765,123.61C27.784,124.031 26.135,123.848 29.765,123.61ZM2.953,123.735C5.407,123.748 5.377,123.864 2.953,123.735ZM40.734,124.204L40.921,124.36L40.734,124.204ZM-7.859,126.579C-7.617,126.679 -8.102,126.679 -7.859,126.579ZM44.015,127.922C43.853,130.515 43.691,130.499 44.015,127.922ZM25.796,128.485C26.406,129.211 25.01,128.697 25.796,128.485ZM31.64,131.204C31.735,131.119 31.718,131.341 31.64,131.204ZM44.046,133.36C45.058,134.676 44.927,134.783 44.046,133.36ZM23.578,134.297C23.458,135.539 23.345,135.896 23.578,134.297ZM1.016,134.579C0.784,135.1 0.746,134.458 1.016,134.579ZM-5.672,134.766C-5.31,134.91 -6.099,134.782 -5.672,134.766ZM-7.328,135.547C-7.484,135.815 -7.509,135.42 -7.328,135.547ZM-7.172,135.547C-6.216,135.644 -6.221,135.769 -7.172,135.547ZM23.109,136.672C23.358,138.059 22.927,137.79 23.109,136.672ZM-7.953,137.891C-8.945,138.734 -9.01,138.652 -7.953,137.891ZM-3.828,140.172C-3.683,140.486 -4.668,140.604 -3.828,140.172ZM-5.734,140.672L-5.984,141.266L-5.734,140.672ZM-6.016,141.516L-6.016,141.922L-6.016,141.516ZM-6.109,142.141L-6.516,142.329L-6.109,142.141ZM11.578,153.016C12.559,153.213 10.796,152.995 11.578,153.016ZM13.89,153.047C14.411,153.038 13.806,153.25 13.89,153.047ZM40.89,153.047C41.021,153.011 40.727,153.29 40.89,153.047ZM18.922,154.36C20.155,154.613 18.396,154.477 18.922,154.36ZM19.859,155.11C20.962,154.536 20.924,157.165 19.859,155.11ZM57.89,155.485C56.675,157.112 55.772,159.87 53.728,160.956C51.818,163.112 46.868,163.678 47.609,168.047C50.02,172.598 42.928,177.603 48.386,182.039C54.998,182.983 53.66,174.083 56.484,170.391C57.288,165.222 60.377,163.278 59.327,158.61C59.268,157.601 58.852,155.964 57.89,155.485ZM10.578,156.985C11.695,156.997 9.992,157.085 10.578,156.985ZM29.078,158.953C29.7,159.24 29.704,159.366 29.078,158.953ZM32.109,161.047C32.298,162.501 32.06,162.527 32.109,161.047ZM24.578,162.328C24.443,162.716 24.373,162.244 24.578,162.328ZM12.047,166.172C12.254,166.237 11.961,166.287 12.047,166.172ZM15.265,166.578C15.764,166.668 14.251,166.807 15.265,166.578ZM14.734,166.891C14.111,167.26 14.129,167.139 14.734,166.891ZM21.328,174.297C21.638,174.138 21.602,174.854 21.328,174.297ZM21.609,176.391C19.868,177.741 18.121,178.934 21.609,176.391ZM6.64,181.203C7.421,183.027 7.296,183.169 6.64,181.203ZM9.172,183.703C9.455,183.668 8.533,184.438 9.172,183.703Z" style="fill:rgb(89,156,139);fill-rule:nonzero;"/>
                    </g>
                </g>
            </g>
        </g>
    </g>
</svg>
